<?xml version="1.0" encoding="UTF-8"?>
<!DOCTYPE svg PUBLIC "-//W3C//DTD SVG 1.1//EN" "http://www.w3.org/Graphics/SVG/1.1/DTD/svg11.dtd">
<!-- Creator: CorelDRAW X8 -->
<svg xmlns="http://www.w3.org/2000/svg" xml:space="preserve" width="210mm" height="297mm" version="1.1" style="shape-rendering:geometricPrecision; text-rendering:geometricPrecision; image-rendering:optimizeQuality; fill-rule:evenodd; clip-rule:evenodd"
viewBox="0 0 21000 29700"
 xmlns:xlink="http://www.w3.org/1999/xlink">
 <defs>
  <style type="text/css">
   <![CDATA[
    .fil0 {fill:none}
    .fil3 {fill:#FEFEFE}
    .fil6 {fill:#FEFEFE}
    .fil1 {fill:#00A0E3}
    .fil4 {fill:#00A0E3}
    .fil2 {fill:white}
    .fil5 {fill:#00A0E3;fill-rule:nonzero}
   ]]>
  </style>
 </defs>
 <g id="Слой_x0020_1">
  <metadata id="CorelCorpID_0Corel-Layer"/>
  <rect class="fil0" x="5173" y="2334" width="9725" height="10874"/>
  <path class="fil1" d="M10662 10036c78,54 95,-8 176,75 58,59 116,44 211,43 -10,-45 -67,-88 -51,-129 76,125 66,138 176,123 16,-58 -48,-85 -62,-139 33,15 84,82 104,128 39,3 55,8 93,-7 49,-42 -52,-303 -217,-348 -99,-27 -179,8 -229,-68 -28,-43 -70,-169 -71,-222 -69,-252 -66,-406 -78,-674 -8,-185 -28,-376 -33,-566 -9,-321 -40,-838 24,-1133 58,-272 133,-308 153,-436 29,-187 0,-383 -9,-564 -11,-216 -58,-573 -207,-770 -88,-117 -184,-108 -193,-267 -4,-66 11,-128 -2,-214 -8,-50 -33,-94 -51,-134 -46,-108 -23,-408 5,-513 16,-58 33,-89 60,-127 29,-41 52,-84 75,-119 167,-245 315,-167 470,-282 77,-57 133,-105 209,-163 51,-38 194,-111 192,-179 -98,-15 -447,361 -568,309 -32,-74 65,-121 140,-134 98,-17 140,-35 205,-84l169 -123c63,-47 82,-126 70,-220 -53,-25 -87,-18 -135,-58 -32,-26 -66,-81 -74,-127 2,2 5,2 6,5 1,3 4,3 5,5l31 36c45,55 98,81 176,82 1,-62 4,-152 -15,-202 -82,-51 -644,59 -769,74 -231,27 -16,-170 -748,-90 -182,20 -403,255 -500,363 -69,77 -89,177 -134,295 -38,101 -79,212 -122,315 -65,158 -59,594 -62,802 -4,343 -12,439 -162,702 -17,29 -30,62 -40,97 -221,247 -261,395 -572,1073 -155,579 -165,556 -483,919 -481,548 -811,1540 -594,2283 -27,28 -14,15 -51,41 -116,83 -327,226 -181,380 17,18 45,31 80,41l0 0c712,312 2028,-67 2546,-46 448,19 609,258 756,253 69,-23 42,-123 25,-177 -54,-166 -112,-251 -288,-377 -71,-50 -147,-91 -226,-124 17,-347 197,-784 311,-1450 22,147 32,290 38,459 5,67 21,310 52,540 34,258 130,658 369,823zm-455 -5696c-19,-26 -9,-48 -45,-109 -52,-88 -137,-168 -219,-233 -107,-85 -255,-149 -362,-236 -58,-46 -111,-88 -127,-182 -15,-88 -10,-185 22,-262 45,-109 262,-254 326,-270 -142,136 -462,450 -162,638 65,42 113,56 185,81 221,81 365,353 406,378 59,-25 93,-202 78,-270 -17,-71 -89,-161 -134,-214 -39,-46 -355,-378 -211,-429l11 24c22,63 18,65 58,134 30,51 66,93 101,126 84,78 143,131 210,235 70,107 110,199 52,334 -32,72 -134,226 -189,255zm145 -1185c32,-78 51,-166 25,-213 59,32 95,61 132,92 -14,31 -25,74 -157,121z"/>
  <path class="fil2" d="M10207 4340c55,-29 157,-183 189,-255 58,-135 18,-227 -52,-334 -67,-104 -126,-157 -210,-235 -35,-33 -71,-75 -101,-126 -40,-69 -36,-71 -58,-134l-11 -24c-144,51 172,383 211,429 45,53 117,143 134,214 15,68 -19,245 -78,270 -41,-25 -185,-297 -406,-378 -72,-25 -120,-39 -185,-81 -300,-188 20,-502 162,-638 -64,16 -281,161 -326,270 -32,77 -37,174 -22,262 16,94 69,136 127,182 107,87 255,151 362,236 82,65 167,145 219,233 36,61 26,83 45,109z"/>
  <path class="fil3" d="M7689 8069c117,-322 368,-599 651,-784 177,-115 784,-500 880,-715 612,-88 850,652 837,1215 -6,264 -86,501 -272,946 -146,349 -118,574 -131,858 -33,-8 -67,-14 -101,-20 -102,-512 -77,-802 138,-1265 152,-328 244,-435 212,-824 -131,396 -101,366 -311,746 -186,337 -234,1021 -42,1343 -68,-11 -138,-19 -208,-23 -56,-135 -83,-254 -119,-413 -94,-417 -26,-734 -347,-1002 -116,-97 -333,-169 -471,-137 -13,3 -38,11 -48,18 484,11 695,298 620,808 -37,257 -157,416 -73,589 26,54 69,99 124,136 -545,26 -1096,176 -1432,166 -189,-294 -164,-1141 93,-1642z"/>
  <path class="fil3" d="M10119 7845c-5,-399 -31,-790 -228,-1115 -372,-610 -827,-433 -909,-451 -49,-11 -84,-77 -138,-137 -19,-21 -41,-48 -53,-78 -60,-158 -14,-110 112,-252 136,-151 94,-249 213,-334 52,-36 154,-58 171,-102 23,-57 11,-154 46,-237 119,63 180,173 220,189 25,-35 38,-187 47,-239 114,21 211,149 293,228 89,84 159,95 300,223 400,363 428,1081 253,1592 -87,253 -209,497 -327,713zm-923 -2141c-18,-17 -29,-43 -11,-75 46,-80 125,-19 129,29 2,20 -8,41 -32,58 -35,25 -53,21 -86,-12z"/>
  <path class="fil1" d="M10981 6260l35 378c38,6 94,-35 136,-62 16,-10 40,-26 62,-42 29,-22 32,-36 70,-42 3,82 -7,166 -23,243 -28,129 -41,93 -97,169 -36,49 -59,117 -96,163 -25,32 -46,39 -60,69 -24,48 -3,79 1,124 -45,37 -46,26 -47,49 64,11 73,-6 124,-11 -42,66 13,89 29,136 -13,28 -22,26 -34,48 132,16 129,-58 225,-97 103,-43 89,-24 169,-161 210,-358 65,-445 70,-832 3,-247 -106,-340 -333,-232 -74,35 -158,72 -231,100z"/>
  <path class="fil1" d="M12072 7847c39,-12 134,-177 156,-208 104,-153 217,-284 388,-359 93,-41 223,-66 296,1 76,71 50,198 23,298 -26,95 -60,184 -110,263 -122,193 -216,251 -387,357 3,21 21,59 29,86 10,39 11,55 17,100 201,-24 419,-9 669,36 224,40 409,110 578,242 117,91 215,254 238,406 25,161 10,331 -38,487 -15,46 -33,98 -45,142 441,-421 408,629 -253,353 33,176 -270,113 -399,142 -148,33 -297,85 -428,39 0,-40 4,-86 39,-116 -44,13 -60,64 -68,105 -7,-3 -13,-5 -20,-8 0,0 -1,-1 -2,-1 -6,-47 1,-99 37,-134 -44,19 -64,69 -70,114 -18,-16 -31,-45 -8,-95 88,-188 306,-198 520,-184 -29,-38 -75,-155 -96,-208 -218,-564 183,-530 224,-549 -190,-6 -352,50 -372,237 -13,125 23,342 95,450 -184,-4 -356,78 -486,199 -16,15 -101,118 -105,131 -228,69 -413,79 -512,20 3,-35 16,-68 38,-102 -31,18 -49,53 -62,84 -8,-6 -15,-14 -21,-22 -5,-45 8,-89 38,-128 -31,17 -49,51 -62,82 -5,-15 -7,-32 -8,-50 4,-43 22,-57 40,-71 55,-40 100,-46 169,-51 -17,-12 -32,-25 -52,-38 -55,-36 -118,-78 -163,-119 -143,-128 -256,-233 -332,-425 -31,-77 -62,-197 -43,-275 2,-6 3,-15 11,-14 39,3 129,0 183,-7 97,-13 212,-36 243,-57 -139,2 -273,7 -415,-16 -1,-30 38,-62 24,-127 -7,-31 -34,-80 -61,-94 100,217 -78,253 -147,201 -44,-32 -28,-58 -36,-117 -12,30 -45,26 -72,14 -36,-16 -33,-28 -38,-68 -9,-67 -8,-136 3,-202 24,-159 76,-190 128,-302 25,-55 32,-102 60,-155 25,-47 58,-87 92,-123 50,-54 165,-152 235,-189 117,-48 229,-36 324,20 6,4 7,7 14,5zm-192 2230c-54,37 -121,45 -180,34 -6,-46 1,-99 38,-134 -45,18 -70,75 -71,126 -15,-5 -29,-11 -41,-18 -11,-52 -1,-103 35,-147 -43,18 -66,71 -71,118 -13,-15 -21,-32 -21,-50 -25,-33 19,-136 87,-154 20,-4 72,-32 97,-41 25,-10 84,-34 106,-19l158 118c-54,14 -125,48 -137,107 -5,19 -4,39 0,60zm156 -1824c-6,23 -55,91 -69,113 -25,40 -17,21 -17,73 4,199 -215,177 -259,156 -12,-6 -9,-2 -13,-14 -12,-32 8,-104 20,-131 52,-114 217,-185 338,-197zm414 -211c2,-6 183,-241 261,-416 37,-84 35,-95 60,-161 11,15 9,38 8,58 -3,49 -16,95 -33,138 -40,96 -110,193 -181,270 -23,25 -92,99 -115,111zm-118 -142c-17,-49 15,-226 30,-276 11,-38 26,-74 47,-111 17,-30 51,-74 72,-87 -8,29 -35,77 -48,112 -32,81 -56,151 -76,236 -5,26 -18,111 -25,126z"/>
  <path class="fil4" d="M11820 7120c14,-84 42,-197 56,-281 3,-56 44,-88 45,-67 1,20 5,53 9,74 32,200 157,414 125,582 4,105 -54,454 -3,510 1,0 1,0 1,0l0 0c-161,194 -247,80 -315,-110 7,-35 -5,-145 -4,-189 2,-64 4,-123 11,-191 13,-122 61,-235 75,-328l0 0zm-5 650c-20,-81 -29,-127 -29,-220 0,-61 10,-188 34,-251 -4,82 -7,162 -7,241l2 230z"/>
  <path class="fil1" d="M11730 8555c61,18 126,28 155,-30 20,-38 13,-143 -9,-176 -65,9 -175,99 -146,206zm67 -87c12,0 22,10 22,24 0,13 -10,24 -22,24 -12,0 -22,-11 -22,-24 0,-14 10,-24 22,-24z"/>
  <g id="_1527423618144">
   <rect class="fil1" x="12842" y="3839" width="581" height="2149"/>
   <rect class="fil1" transform="matrix(5.09834E-15 0.192502 -0.192502 5.09834E-15 14207.3 4623.57)" width="3018" height="11166"/>
  </g>
  <path class="fil1" d="M6793 9861c-277,32 -524,-11 -642,-159 -124,-157 -17,-313 128,-425 305,-236 585,-376 465,-776 -65,-218 -279,-175 -208,-24 95,203 -3,325 -445,671 -76,59 -138,129 -179,210 -128,252 21,453 151,568 209,184 477,234 765,207 -44,-51 -70,-112 -63,-181 3,-33 14,-63 28,-91z"/>
  <path class="fil5" d="M6787 11258l4 -497c0,-108 -86,-157 -176,-165 -95,-14 -191,-22 -292,-22 -104,0 -212,8 -323,24 -88,7 -174,57 -174,165l0 36c-23,833 -274,959 -274,997 0,68 104,179 236,179 338,0 376,-562 385,-812 2,-48 4,-106 8,-174l5 -139 207 0 -8 957c-2,119 104,167 201,167l2 0c97,0 201,-48 201,-167 0,-7 0,-190 -2,-549zm1611 529c0,-2 -22,-67 -66,-199l-142 -425c-52,-153 -84,-251 -101,-295 -67,-189 -199,-286 -340,-286 -89,0 -261,58 -261,131 0,20 39,55 39,111 0,26 -11,66 -30,121l-288 842c-4,13 -6,24 -6,37 0,84 92,148 227,148 157,0 153,-48 197,-241l314 0c57,195 53,241 212,241 144,0 252,-68 252,-148 0,-11 -2,-24 -7,-37zm-725 -301c7,-38 84,-445 102,-516l5 0 106 516 -213 0zm2209 -210l0 -510c0,-104 -78,-155 -164,-164 -124,-18 -263,-24 -422,-24 -250,0 -528,-7 -528,188l0 1036c0,124 104,173 201,173l2 0c93,0 199,-49 199,-173 0,-13 -2,-327 -5,-946l323 0 -6 946c-1,124 105,173 201,173l2 0c97,0 201,-49 201,-173 0,-7 -2,-183 -4,-526zm1651 11c0,-376 -255,-694 -633,-694 -373,0 -632,314 -632,694 0,378 253,690 632,690 385,0 633,-308 633,-690zm-853 0c0,-227 86,-490 220,-490 131,0 221,263 221,490 0,201 -75,486 -221,486 -139,0 -220,-287 -220,-486zm2320 -517c0,-130 -132,-165 -207,-166l-1 0c-75,5 -207,33 -207,166 0,2 6,263 6,320 0,94 -51,142 -101,142 -44,0 -84,-40 -84,-122l-7 -207c-7,-181 -141,-305 -307,-305 -100,0 -239,82 -239,148 0,44 131,-4 144,301l5 92c13,217 172,345 335,345 98,0 195,-40 261,-128 0,0 4,88 4,106l0 62c0,117 -24,283 -145,283 -56,0 -97,-42 -97,-115 0,-27 6,-60 19,-95 0,-36 -84,-87 -157,-87 -126,0 -212,75 -212,191 0,196 164,291 391,291 343,0 562,-216 586,-618 9,-140 13,-341 13,-604zm1484 807c-91,81 -208,123 -321,123 -183,0 -384,-145 -384,-477 0,-174 90,-400 234,-400 97,0 141,78 141,182 0,22 -6,44 -6,66 0,35 62,64 141,64 124,0 203,-102 203,-208 0,-201 -210,-334 -488,-334 -371,0 -639,316 -639,686 0,386 283,698 637,698 375,-5 499,-290 512,-358l5 -31c0,-14 -2,-24 -11,-24 -5,0 -14,4 -24,13z"/>
  <path class="fil5" d="M5518 12722l153 0c122,0 167,-56 167,-133 0,-86 -79,-107 -90,-110l0 -2c8,-5 58,-27 58,-94 0,-71 -49,-116 -154,-116l-134 0 0 455zm69 -56l0 -151 56 0c79,0 125,13 125,76 0,61 -47,75 -108,75l-73 0zm0 -203l0 -142 51 0c64,0 98,18 98,72 0,50 -25,70 -89,70l-60 0zm377 259l282 0 0 -56 -213 0 0 -145 184 0 0 -54 -184 0 0 -144 198 0 0 -56 -267 0 0 455zm492 0l69 0 0 -398 151 0 0 -57 -372 0 0 57 152 0 0 398zm313 0l281 0 0 -56 -212 0 0 -145 184 0 0 -54 -184 0 0 -144 198 0 0 -56 -267 0 0 455zm403 0l69 0 0 -399 73 0c68,0 98,32 98,95 0,63 -43,94 -114,94l-28 0 0 56 25 0c128,0 189,-69 189,-153 0,-95 -62,-148 -156,-148l-156 0 0 455zm414 0l68 0 211 -311 32 -51 -2 66 0 296 69 0 0 -455 -69 0 -202 295 -40 67 1 -66 0 -296 -68 0 0 455zm533 0l69 0 0 -201 233 0 0 201 69 0 0 -455 -69 0 0 199 -233 0 0 -199 -69 0 0 455zm469 0l70 0 61 -159 173 0 55 159 73 0 -161 -455 -92 0 -179 455zm151 -212l72 -196 63 196 -135 0zm377 212l69 0 0 -399 73 0c68,0 98,32 98,95 0,63 -43,94 -113,94l-29 0 0 56 25 0c128,0 189,-69 189,-153 0,-95 -62,-148 -156,-148l-156 0 0 455zm414 0l69 0 0 -201 233 0 0 201 69 0 0 -455 -69 0 0 199 -233 0 0 -199 -69 0 0 455zm469 0l69 0 62 -159 172 0 56 159 72 0 -160 -455 -92 0 -179 455zm151 -212l71 -196 63 196 -134 0zm343 219c65,-5 102,-34 136,-96l49 -86c10,1 22,1 34,1l53 0 0 174 70 0 0 -455 -157 0c-90,0 -155,52 -155,144 0,58 31,103 85,120l-34 62c-32,57 -51,69 -93,81l12 55zm215 -234c-70,0 -113,-24 -113,-84 0,-58 35,-88 100,-88l70 0 0 172 -57 0zm773 227l90 0 -199 -244 187 -211 -88 0 -175 206 0 11 185 238zm-264 0l69 0 0 -455 -69 0 0 455zm411 14c46,-21 85,-48 107,-90 30,-59 37,-160 51,-325l129 0 0 401 69 0 0 -455 -258 0c-8,180 -23,297 -44,340 -14,28 -51,52 -84,67l30 62zm512 -14l69 0 210 -311 32 -51 -2 66 0 296 69 0 0 -455 -69 0 -202 295 -40 67 2 -66 0 -296 -69 0 0 455zm533 0l69 0 0 -201 233 0 0 201 69 0 0 -455 -69 0 0 199 -233 0 0 -199 -69 0 0 455zm527 0l68 0 211 -311 32 -51 -2 66 0 296 69 0 0 -455 -69 0 -202 295 -41 67 2 -66 0 -296 -68 0 0 455zm797 0l90 0 -199 -244 187 -211 -88 0 -175 206 0 11 185 238zm-264 0l69 0 0 -455 -69 0 0 455zm389 0l70 0 62 -159 172 0 55 159 73 0 -161 -455 -92 0 -179 455zm152 -212l71 -196 63 196 -134 0z"/>
  <path class="fil3" d="M11876 8349c22,33 29,138 9,176 -29,58 -94,48 -155,30 -29,-107 81,-197 146,-206zm-178 101c-12,27 -32,99 -20,131 4,12 1,8 13,14 44,21 263,43 259,-156 0,-52 -8,-33 17,-73 14,-22 63,-90 69,-113 -121,12 -286,83 -338,197z"/>
  <path class="fil3" d="M12711 7626c-78,175 -259,410 -261,416 23,-12 92,-86 115,-111 71,-77 141,-174 181,-270 17,-43 30,-89 33,-138 1,-20 3,-43 -8,-58 -25,66 -23,77 -60,161z"/>
  <path class="fil3" d="M12357 7774c20,-85 44,-155 76,-236 13,-35 40,-83 48,-112 -21,13 -55,57 -72,87 -21,37 -36,73 -47,111 -15,50 -47,227 -30,276 7,-15 20,-100 25,-126z"/>
  <path class="fil3" d="M11813 7540c0,-79 3,-159 7,-241 -24,63 -34,190 -34,251 0,93 9,139 29,220l-2 -230z"/>
  <path class="fil3" d="M10352 3155c132,-47 143,-90 157,-121 -37,-31 -73,-60 -132,-92 26,47 7,135 -25,213z"/>
  <path class="fil6" d="M11797 8468c-12,0 -22,10 -22,24 0,13 10,24 22,24 12,0 22,-11 22,-24 0,-14 -10,-24 -22,-24z"/>
 </g>
</svg>
