<?xml version="1.0" encoding="UTF-8"?>
<!DOCTYPE svg PUBLIC "-//W3C//DTD SVG 1.1//EN" "http://www.w3.org/Graphics/SVG/1.1/DTD/svg11.dtd">
<!-- Creator: CorelDRAW X8 -->
<svg xmlns="http://www.w3.org/2000/svg" xml:space="preserve" width="95mm" height="80mm" version="1.1" style="shape-rendering:geometricPrecision; text-rendering:geometricPrecision; image-rendering:optimizeQuality; fill-rule:evenodd; clip-rule:evenodd"
viewBox="0 0 9500 8000"
 xmlns:xlink="http://www.w3.org/1999/xlink">
 <defs>
  <style type="text/css">
   <![CDATA[
    .fil0 {fill:none}
    .fil1 {fill:#00A0E3}
    .fil2 {fill:#00A0E3;fill-rule:nonzero}
   ]]>
  </style>
 </defs>
 <g id="Слой_x0020_1">
  <metadata id="CorelCorpID_0Corel-Layer"/>
  <rect class="fil0" width="9500" height="8000"/>
  <g id="_2147016891120">
   <g>
    <g>
     <rect class="fil1" x="6542" y="1105" width="375" height="1386"/>
     <rect class="fil1" transform="matrix(3.2868E-15 0.124102 -0.124102 3.2868E-15 7422.52 1610.65)" width="3018" height="11166"/>
    </g>
    <path class="fil1" d="M5159 5079c50,34 61,-5 113,48 38,38 75,28 136,28 -6,-30 -43,-57 -33,-83 49,80 42,88 113,79 10,-38 -31,-55 -40,-90 21,10 54,53 67,82 25,2 35,6 60,-4 31,-27 -34,-195 -139,-223 -64,-18 -116,5 -148,-44 -18,-27 -44,-109 -45,-143 -45,-161 -43,-260 -50,-432 -5,-119 -18,-242 -22,-364 -5,-206 -25,-538 16,-728 37,-174 85,-197 98,-279 19,-121 0,-247 -6,-363 -7,-139 -37,-367 -133,-494 -56,-75 -118,-70 -123,-172 -3,-42 7,-82 -2,-137 -5,-32 -21,-60 -32,-86 -30,-70 -15,-262 3,-330 10,-37 21,-57 38,-81 19,-26 33,-54 49,-76 107,-158 202,-108 301,-181 50,-37 85,-68 135,-105 32,-25 124,-71 123,-115 -63,-10 -287,232 -365,198 -21,-48 42,-78 90,-86 63,-11 90,-22 131,-54l109 -79c40,-30 53,-81 45,-141 -34,-16 -56,-12 -87,-37 -20,-17 -42,-52 -47,-82 1,1 3,1 3,3 1,2 3,3 4,3l20 24c28,35 63,52 113,53 0,-41 2,-98 -10,-130 -53,-33 -413,37 -494,47 -148,18 -10,-109 -480,-58 -117,13 -259,164 -321,233 -45,50 -58,114 -86,190 -25,65 -51,136 -78,202 -42,101 -39,382 -40,515 -3,221 -8,282 -105,451 -10,19 -19,40 -25,62 -142,159 -167,254 -368,689 -99,372 -106,358 -310,591 -308,351 -520,989 -381,1466 -17,17 -9,10 -33,26 -74,53 -210,145 -116,244 11,11 29,20 52,26l0 0c457,201 1302,-43 1634,-29 288,12 391,166 486,162 44,-15 27,-79 16,-113 -35,-107 -72,-162 -185,-242 -46,-33 -94,-59 -145,-80 11,-223 126,-504 200,-931 14,94 20,186 24,294 3,44 14,199 33,347 22,166 84,423 237,529zm-1909 -1263c75,-207 236,-385 418,-504 113,-74 504,-321 565,-459 393,-57 546,419 538,780 -4,170 -56,322 -175,608 -94,224 -76,368 -84,551 -21,-5 -43,-9 -65,-13 -65,-329 -50,-515 88,-812 98,-211 157,-280 137,-530 -84,255 -65,235 -200,480 -119,216 -150,655 -27,862 -44,-7 -88,-12 -133,-15 -37,-86 -54,-163 -77,-265 -60,-268 -16,-472 -223,-643 -74,-63 -214,-109 -302,-89 -8,2 -25,7 -31,12 311,7 446,191 398,519 -23,165 -101,267 -47,378 17,35 45,64 80,88 -350,16 -704,112 -920,106 -121,-189 -105,-733 60,-1054zm1560 -144c-3,-256 -19,-508 -146,-716 -239,-392 -531,-278 -584,-290 -31,-7 -54,-50 -88,-88 -12,-13 -27,-30 -34,-50 -39,-102 -9,-71 72,-162 87,-97 60,-160 137,-214 33,-24 98,-38 109,-66 15,-36 7,-99 30,-152 76,41 116,111 141,121 16,-22 24,-119 31,-153 72,13 134,96 188,146 56,54 101,61 192,143 257,234 275,694 162,1023 -55,162 -134,319 -210,458zm-592 -1375c-12,-11 -19,-28 -7,-49 29,-51 80,-12 83,19 1,13 -6,27 -21,37 -23,17 -34,14 -55,-7zm649 -876c-12,-17 -6,-31 -29,-70 -34,-57 -88,-108 -141,-150 -68,-54 -163,-96 -232,-151 -37,-30 -71,-57 -81,-117 -10,-57 -7,-119 14,-168 29,-70 168,-163 209,-174 -91,87 -297,289 -104,410 42,27 73,36 119,52 142,52 234,227 260,243 38,-16 60,-130 50,-174 -10,-45 -57,-103 -86,-137 -24,-30 -228,-243 -135,-276l7 16c14,40 12,41 38,86 18,32 42,60 64,81 54,50 92,84 135,150 45,69 71,129 33,215 -20,46 -85,145 -121,164zm93 -761c21,-50 33,-107 16,-137 38,21 61,39 85,59 -9,20 -16,48 -101,78z"/>
    <path class="fil1" d="M5364 2654l23 243c24,4 60,-23 87,-40 10,-7 25,-17 40,-27 19,-14 20,-23 45,-27 1,53 -5,106 -15,156 -18,82 -27,60 -62,109 -23,31 -39,74 -62,104 -16,21 -30,25 -39,44 -15,31 -1,51 1,80 -29,24 -29,17 -30,31 41,8 47,-3 80,-6 -27,42 8,57 18,87 -8,18 -14,17 -22,30 85,11 83,-37 145,-62 66,-27 57,-15 109,-103 134,-230 41,-286 44,-535 2,-158 -68,-218 -214,-149 -47,23 -101,47 -148,65z"/>
    <path class="fil1" d="M6065 3673c25,-8 86,-114 100,-134 66,-98 139,-182 249,-230 60,-27 143,-42 190,1 49,45 32,127 15,191 -16,61 -39,118 -71,169 -78,124 -138,161 -248,229 2,13 14,38 18,55 7,25 8,36 11,64 129,-15 269,-5 430,24 144,25 263,70 371,155 76,58 138,163 153,261 16,103 6,212 -25,312 -9,30 -21,63 -28,92 283,-271 262,404 -163,226 21,114 -174,73 -256,92 -95,21 -191,54 -275,24 0,-25 3,-55 25,-74 -28,9 -38,41 -44,67 -4,-1 -8,-3 -12,-5 -1,0 -1,0 -2,0 -4,-30 1,-64 24,-86 -28,12 -41,44 -45,73 -11,-10 -20,-29 -5,-61 56,-121 196,-127 334,-118 -19,-25 -48,-100 -61,-134 -140,-362 117,-340 143,-353 -122,-3 -226,33 -239,153 -8,80 15,219 61,289 -118,-3 -229,50 -312,128 -10,9 -65,75 -67,84 -147,44 -266,50 -329,12 2,-22 10,-43 25,-65 -21,11 -32,34 -40,54 -6,-4 -10,-9 -14,-14 -3,-29 5,-57 24,-83 -19,11 -31,33 -39,53 -3,-9 -5,-20 -5,-32 2,-27 14,-36 25,-45 35,-26 64,-30 109,-33 -11,-8 -21,-16 -34,-25 -35,-23 -76,-50 -104,-76 -92,-82 -165,-149 -214,-273 -19,-49 -39,-127 -27,-177 1,-3 2,-9 7,-8 25,1 83,-1 117,-5 63,-8 136,-23 157,-37 -90,2 -176,5 -267,-10 0,-19 24,-39 15,-81 -4,-21 -22,-52 -39,-61 64,140 -50,163 -95,130 -27,-21 -17,-38 -22,-76 -8,19 -29,17 -46,9 -23,-10 -22,-18 -25,-44 -6,-42 -5,-87 2,-129 15,-102 49,-122 82,-194 16,-35 21,-66 39,-100 16,-30 37,-55 59,-79 32,-34 106,-98 151,-121l3 -1c3,-27 -4,-91 -3,-116 1,-41 2,-80 7,-123 8,-79 39,-151 48,-211l0 0c9,-54 27,-126 36,-180 2,-36 28,-57 29,-43 0,13 3,34 5,47 21,129 101,266 81,374 1,48 -17,174 -16,257 6,3 12,6 18,9 4,2 4,5 9,3zm-165 -49c-13,-52 -19,-82 -19,-142 0,-39 6,-121 22,-161 -2,53 -5,104 -4,155l1 148zm41 1481c-34,24 -77,29 -115,22 -4,-30 0,-64 24,-86 -29,12 -45,48 -45,81 -10,-3 -19,-7 -27,-12 -7,-33 0,-66 23,-94 -28,11 -43,45 -46,76 -8,-10 -13,-21 -14,-33 -15,-21 13,-87 57,-99 13,-2 46,-20 62,-26 16,-6 53,-22 68,-12l101 76c-35,9 -80,30 -88,68 -3,13 -2,26 0,39zm101 -1171c-4,15 -36,58 -44,73 -16,25 -12,13 -11,46 2,128 -138,114 -167,100 -8,-3 -6,-1 -8,-9 -8,-20 5,-66 13,-84 33,-73 139,-119 217,-126zm265 -136c2,-4 118,-155 168,-267 24,-54 22,-61 39,-104 7,10 6,25 5,38 -2,32 -10,61 -22,89 -25,61 -70,123 -115,173 -15,16 -60,64 -75,71zm-75 -91c-11,-31 9,-145 19,-177 7,-25 17,-48 30,-71 11,-20 33,-48 46,-56 -5,19 -22,49 -30,71 -21,53 -37,98 -49,152 -4,17 -12,71 -16,81z"/>
    <path class="fil1" d="M5845 4128c39,11 81,18 100,-20 12,-24 8,-91 -6,-113 -42,6 -113,64 -94,133zm43 -56c8,0 14,6 14,15 0,9 -6,16 -14,16 -8,0 -14,-7 -14,-16 0,-9 6,-15 14,-15z"/>
    <path class="fil1" d="M2675 4966c-178,21 -337,-7 -412,-102 -80,-100 -12,-200 81,-272 197,-152 376,-242 299,-499 -42,-140 -179,-112 -133,-15 61,130 -3,208 -286,430 -49,39 -89,84 -115,135 -82,162 13,291 97,365 134,118 306,150 491,133 -28,-32 -45,-72 -40,-116 2,-21 8,-41 18,-59z"/>
   </g>
   <g>
    <path class="fil2" d="M1444 6289l3 -418c0,-90 -72,-132 -147,-138 -80,-12 -161,-18 -246,-18 -87,0 -178,6 -271,20 -74,6 -146,47 -146,138l0 31c-20,699 -230,805 -230,837 0,57 87,151 198,151 284,0 316,-473 324,-683 1,-40 3,-89 6,-146l4 -116 174 0 -7 804c-1,99 88,139 169,139l2 0c81,0 169,-40 169,-139 0,-7 0,-160 -2,-462zm1338 445c0,-2 -19,-57 -55,-168l-120 -356c-43,-129 -71,-212 -84,-249 -57,-159 -168,-240 -286,-240 -75,0 -219,49 -219,110 0,17 32,46 32,94 0,21 -9,55 -25,101l-242 708c-3,10 -5,20 -5,30 0,71 77,125 191,125 132,0 129,-40 165,-203l264 0c48,164 45,203 178,203 121,0 212,-57 212,-125 0,-9 -2,-20 -6,-30zm-609 -254c6,-31 70,-373 86,-433l4 0 89 433 -179 0zm1841 -176l0 -428c0,-88 -66,-130 -138,-138 -105,-15 -221,-20 -355,-20 -210,0 -443,-6 -443,158l0 870c0,104 87,146 169,146l1 0c78,0 167,-42 167,-146 0,-11 -1,-275 -4,-795l271 0 -4 795c-2,104 87,146 168,146l2 0c81,0 169,-42 169,-146 0,-6 -2,-154 -3,-442zm1371 9c0,-316 -215,-583 -532,-583 -313,0 -531,264 -531,583 0,318 213,580 531,580 324,0 532,-259 532,-580zm-716 0c0,-190 72,-411 184,-411 110,0 185,221 185,411 0,169 -62,408 -185,408 -117,0 -184,-241 -184,-408zm1744 -72c-5,0 -6,-1 -6,-3 0,-1 1,-3 5,-6 64,-25 127,-127 127,-224 0,-215 -229,-276 -433,-276 -284,0 -419,32 -419,161l0 587c0,203 112,416 447,416 247,0 482,-107 482,-377 0,-114 -77,-233 -203,-278l0 0zm-390 -337c19,-5 37,-8 56,-8 82,0 142,38 142,136 0,91 -63,162 -198,162l0 -290zm132 808c-84,0 -127,-50 -132,-152l0 -198c22,-4 42,-6 62,-6 116,0 204,77 204,192 0,100 -49,164 -134,164l0 0zm1677 -833c0,-109 -110,-138 -173,-140l-2 0c-63,5 -173,28 -173,140 0,2 4,221 4,269 0,79 -42,119 -84,119 -37,0 -71,-34 -71,-103l-6 -173c-6,-152 -118,-256 -257,-256 -85,0 -201,69 -201,124 0,37 110,-3 121,253l4 77c11,183 145,290 281,290 83,0 164,-34 220,-107 0,0 3,73 3,89l0 52c0,98 -20,238 -122,238 -47,0 -81,-36 -81,-97 0,-23 5,-51 16,-80 0,-31 -71,-74 -132,-74 -106,0 -178,63 -178,162 0,164 138,244 328,244 288,0 473,-182 492,-519 8,-118 11,-287 11,-508zm1232 678c-77,68 -175,103 -270,103 -153,0 -322,-121 -322,-400 0,-146 75,-336 196,-336 82,0 118,65 118,153 0,18 -4,37 -4,55 0,29 52,54 118,54 104,0 170,-86 170,-175 0,-169 -176,-281 -409,-281 -312,0 -537,266 -537,577 0,324 237,586 535,586 315,-4 419,-244 430,-301l4 -26c0,-12 -1,-20 -9,-20 -5,0 -12,4 -20,11z"/>
    <path class="fil2" d="M624 7557l-217 0 0 -430 211 0c39,0 69,11 90,31 22,21 33,47 33,79 0,26 -7,47 -22,65 -14,18 -32,29 -53,33 23,4 43,16 59,36 16,21 24,44 24,70 0,35 -11,63 -33,84 -22,22 -53,32 -92,32zm-21 -252c19,0 34,-5 44,-15 11,-11 16,-24 16,-40 0,-17 -5,-31 -16,-41 -10,-10 -25,-15 -44,-15l-121 0 0 111 121 0zm3 186c21,0 37,-5 48,-16 12,-10 18,-25 18,-44 0,-17 -6,-31 -18,-42 -11,-12 -27,-17 -48,-17l-124 0 0 119 124 0zm595 66l-295 0 0 -430 295 0 0 67 -220 0 0 111 215 0 0 67 -215 0 0 119 220 0 0 66zm336 0l-75 0 0 -363 -130 0 0 -67 336 0 0 67 -131 0 0 363zm570 0l-294 0 0 -430 294 0 0 67 -219 0 0 111 215 0 0 67 -215 0 0 119 219 0 0 66zm235 0l-76 0 0 -430 189 0c44,0 78,13 103,39 25,26 38,58 38,96 0,38 -13,70 -38,96 -25,26 -59,39 -103,39l-113 0 0 160zm103 -227c21,0 39,-6 53,-18 13,-13 20,-29 20,-50 0,-21 -7,-37 -20,-50 -14,-12 -32,-18 -53,-18l-103 0 0 136 103 0zm367 227l-73 0 0 -430 76 0 0 299 220 -299 77 0 0 430 -75 0 0 -307 -225 307zm848 0l-76 0 0 -187 -223 0 0 187 -76 0 0 -430 76 0 0 176 223 0 0 -176 76 0 0 430zm560 0l-86 0 -32 -82 -197 0 -32 82 -85 0 168 -430 95 0 169 430zm-139 -149l-77 -205 -78 205 155 0zm342 149l-75 0 0 -430 189 0c43,0 78,13 103,39 25,26 38,58 38,96 0,38 -13,70 -38,96 -25,26 -60,39 -103,39l-114 0 0 160zm104 -227c21,0 39,-6 53,-18 13,-13 20,-29 20,-50 0,-21 -7,-37 -20,-50 -14,-12 -32,-18 -53,-18l-104 0 0 136 104 0zm669 227l-75 0 0 -187 -224 0 0 187 -76 0 0 -430 76 0 0 176 224 0 0 -176 75 0 0 430zm560 0l-86 0 -32 -82 -197 0 -31 82 -86 0 169 -430 94 0 169 430zm-139 -149l-77 -205 -78 205 155 0zm884 149l-93 0 -144 -181 -37 44 0 137 -76 0 0 -430 76 0 0 205 168 -205 93 0 -174 203 187 227zm104 8l0 -67c25,0 44,-10 56,-29 13,-20 22,-60 29,-121l25 -221 293 0 0 430 -76 0 0 -363 -149 0 -18 160c-5,44 -12,80 -22,109 -9,29 -21,51 -35,65 -14,14 -29,24 -45,29 -16,6 -35,8 -58,8zm651 -8l-76 0 0 -430 76 0 0 430zm547 0l-75 0 0 -187 -224 0 0 187 -75 0 0 -430 75 0 0 176 224 0 0 -176 75 0 0 430zm249 0l-76 0 0 -430 76 0 0 430zm523 0l-93 0 -145 -181 -37 44 0 137 -76 0 0 -430 76 0 0 205 168 -205 94 0 -175 203 188 227zm518 0l-86 0 -31 -82 -198 0 -31 82 -86 0 169 -430 94 0 169 430zm-138 -149l-78 -205 -77 205 155 0z"/>
   </g>
  </g>
 </g>
</svg>
