<?xml version="1.0" encoding="UTF-8" standalone="no"?>
<svg
   xmlns:dc="http://purl.org/dc/elements/1.1/"
   xmlns:cc="http://creativecommons.org/ns#"
   xmlns:rdf="http://www.w3.org/1999/02/22-rdf-syntax-ns#"
   xmlns:svg="http://www.w3.org/2000/svg"
   xmlns="http://www.w3.org/2000/svg"
   xmlns:sodipodi="http://sodipodi.sourceforge.net/DTD/sodipodi-0.dtd"
   xmlns:inkscape="http://www.inkscape.org/namespaces/inkscape"
   width="60mm"
   height="400mm"
   viewBox="0 0 297 210"
   version="1.1"
   id="svg8"
   inkscape:version="1.0.1 (3bc2e813f5, 2020-09-07)"
   sodipodi:docname="Маска+перчи.svg">
  <defs
     id="defs2" />
  <sodipodi:namedview
     id="base"
     pagecolor="#ffffff"
     bordercolor="#666666"
     borderopacity="1.0"
     inkscape:pageopacity="0.0"
     inkscape:pageshadow="2"
     inkscape:zoom="0.35"
     inkscape:cx="400"
     inkscape:cy="560"
     inkscape:document-units="mm"
     inkscape:current-layer="layer1"
     inkscape:document-rotation="0"
     showgrid="false"
     inkscape:window-width="1600"
     inkscape:window-height="837"
     inkscape:window-x="-8"
     inkscape:window-y="-8"
     inkscape:window-maximized="1" />
  <metadata
     id="metadata5">
    <rdf:RDF>
      <cc:Work
         rdf:about="">
        <dc:format>image/svg+xml</dc:format>
        <dc:type
           rdf:resource="http://purl.org/dc/dcmitype/StillImage" />
        <dc:title></dc:title>
      </cc:Work>
    </rdf:RDF>
  </metadata>

     <g id="SvgjsG1007" rel="mainfill" name="main_text" xmlns:name="main_text" transform="translate(0.02545454539358616,-55.02259826660156)" fill="#1c9aea">
    <path d="M60.09 186.93L24.36 186.93L24.01 190.16L29.62 190.16Q29.20 192.69 28.53 197.36Q27.87 202.02 26.85 207.57Q25.83 213.12 24.39 218.84Q22.95 224.56 20.95 229.23Q18.95 233.89 16.36 236.88Q13.76 239.86 10.39 239.86L10.32 239.86Q8.35 239.86 7.23 238.91Q6.11 237.96 5.44 236.81Q4.77 235.65 4.39 234.67Q4.00 233.68 3.51 233.68Q2.74 233.68 2.11 234.21Q1.47 234.74 1.02 235.51Q0.56 236.28 0.28 237.12Q0 237.96 0 238.60Q-0.14 240.07 0.49 241.12Q1.12 242.18 2.18 242.84Q3.23 243.51 4.53 243.83Q5.83 244.14 7.09 244.14Q12.21 244.14 16.11 242.00Q20.01 239.86 22.85 236.28Q25.69 232.70 27.66 228.00Q29.62 223.29 30.92 218.13Q32.22 212.98 32.96 207.75Q33.69 202.52 34.18 197.88Q34.40 195.78 34.57 193.81Q34.75 191.85 34.96 190.16L50.19 190.16Q48.29 198.23 47.14 206.27Q45.98 214.31 45.13 222.45Q44.71 226.17 44.54 229.82Q44.36 233.47 44.22 237.19L40.57 237.19L40.29 240L54.68 240L54.96 237.19L50.33 237.19Q50.54 236.07 50.72 235.23Q50.89 234.38 51.17 232.45Q51.45 230.52 51.91 226.80Q52.37 223.08 53.07 216.20Q53.42 212.48 53.73 208.87Q54.05 205.25 54.26 201.88Q54.47 198.52 54.68 195.53Q54.89 192.55 55.03 190.16L59.74 190.16L60.09 186.93ZM99.68 239.09L99.61 236.63Q98.83 236.77 98.03 236.91Q97.22 237.05 96.45 237.05Q94.97 237.05 94.13 236.14Q93.57 235.51 93.43 233.75Q93.29 232.00 93.36 229.96Q93.43 227.93 93.57 226.03Q93.71 224.14 93.78 223.22Q94.41 217.40 95.11 211.64Q95.82 205.89 96.45 200.06L96.45 199.78Q96.59 198.80 96.45 197.95Q96.31 197.11 95.04 197.11L94.90 197.11L90.62 199.01Q89.29 198.44 88.02 198.13Q86.76 197.81 85.22 197.81Q81.78 197.81 78.93 199.04Q76.09 200.27 73.74 202.38Q71.39 204.48 69.60 207.22Q67.81 209.96 66.51 213.01Q65.21 216.06 64.44 219.19Q63.67 222.31 63.39 225.12Q63.10 227.44 63.21 230.24Q63.32 233.05 64.12 235.47Q64.93 237.89 66.65 239.51Q68.37 241.12 71.39 241.12Q73.77 241.12 76.13 240.07Q78.48 239.02 80.55 237.16Q82.62 235.30 84.27 232.81Q85.92 230.31 86.97 227.37L86.55 231.72Q86.41 233.19 86.34 234.74Q86.27 236.28 86.62 237.58Q86.97 238.88 87.95 239.72Q88.94 240.56 90.83 240.56Q93.08 240.56 95.25 240Q97.43 239.44 99.68 239.09M90.20 205.18Q89.99 206.87 89.53 209.78Q89.08 212.69 88.23 216.10Q87.39 219.50 86.23 223.01Q85.08 226.52 83.53 229.37Q81.99 232.21 80.09 234.00Q78.20 235.79 75.88 235.79Q73.56 235.79 72.41 234.38Q71.25 232.98 70.83 230.98Q70.40 228.98 70.48 226.77Q70.55 224.56 70.69 222.87Q70.76 222.03 70.72 221.15Q70.69 220.28 70.83 219.50Q71.18 216.20 71.81 213.01Q72.44 209.82 73.88 207.32Q75.32 204.83 77.88 203.32Q80.44 201.81 84.58 201.81L84.87 201.81Q85.78 201.81 86.80 201.88Q87.81 201.95 88.59 202.27Q89.36 202.59 89.85 203.25Q90.34 203.92 90.20 205.18ZM137.23 240L137.51 236.91L134.00 236.77Q134.56 233.05 135.02 229.44Q135.48 225.82 135.83 222.17Q136.39 217.12 136.70 212.03Q137.02 206.94 137.30 201.81L140.74 201.81L141.09 198.73L109.85 198.73L109.50 201.81L113.01 201.81Q112.45 204.55 111.96 207.04Q111.47 209.54 111.08 211.99Q110.70 214.45 110.38 217.01Q110.06 219.57 109.78 222.38Q109.64 223.93 109.43 225.79Q109.22 227.65 109.08 229.58Q108.94 231.51 108.80 233.40Q108.66 235.30 108.66 236.91L105.85 236.91L105.57 240L117.51 240L117.79 236.91L114.28 236.77Q114.84 233.05 115.29 229.44Q115.75 225.82 116.10 222.17Q116.66 217.12 116.98 212.03Q117.29 206.94 117.58 201.81L132.74 201.81Q132.18 204.55 131.68 207.04Q131.19 209.54 130.81 211.99Q130.42 214.45 130.11 217.01Q129.79 219.57 129.51 222.38Q129.37 223.93 129.16 225.79Q128.95 227.65 128.81 229.58Q128.67 231.51 128.53 233.40Q128.39 235.30 128.39 236.91L125.58 236.91L125.30 240L137.23 240ZM181.24 214.94Q181.59 211.71 181.21 208.55Q180.82 205.39 179.49 202.94Q178.15 200.48 175.73 198.97Q173.31 197.46 169.52 197.46Q164.61 197.46 160.67 199.99Q156.74 202.52 153.87 206.38Q150.99 210.24 149.27 214.87Q147.55 219.50 147.13 223.71Q146.78 227.01 147.13 230.17Q147.48 233.33 148.81 235.82Q150.15 238.32 152.60 239.82Q155.06 241.33 158.85 241.33Q163.90 241.33 167.83 238.84Q171.77 236.35 174.61 232.45Q177.45 228.56 179.14 223.93Q180.82 219.29 181.24 214.94M174.22 220.06Q174.01 222.38 173.35 225.19Q172.68 228.00 171.38 230.42Q170.08 232.84 168.05 234.49Q166.01 236.14 162.99 236.14Q159.76 236.14 157.94 234.35Q156.11 232.56 155.27 229.93Q154.43 227.29 154.36 224.28Q154.29 221.26 154.57 218.80Q154.85 216.27 155.52 213.29Q156.18 210.31 157.55 207.75Q158.92 205.18 161.10 203.46Q163.27 201.74 166.57 201.74Q169.66 201.74 171.34 203.74Q173.03 205.75 173.73 208.62Q174.43 211.50 174.43 214.66Q174.43 217.75 174.22 220.06ZM219.78 242.46Q220.55 235.23 220.83 228.07Q221.11 220.91 221.88 213.68Q222.24 209.89 222.76 206.24Q223.29 202.59 223.71 198.80L222.02 198.80Q220.69 198.80 219.88 199.60Q219.08 200.41 218.55 201.57Q218.02 202.73 217.78 204.03Q217.53 205.32 217.39 206.24Q217.04 208.20 216.51 211.12Q215.99 214.03 215.15 217.29Q214.30 220.56 213.11 223.86Q211.92 227.15 210.27 229.79Q208.62 232.42 206.51 234.07Q204.41 235.72 201.67 235.72Q199.56 235.72 198.58 234.63Q197.60 233.54 197.28 231.96Q196.97 230.38 197.04 228.56Q197.11 226.73 197.25 225.26Q197.88 218.59 198.19 212.03Q198.51 205.46 198.93 198.80L190.72 198.80L190.44 201.32L195.07 201.32Q193.67 207.85 192.40 214.27Q191.14 220.70 190.44 227.29Q190.23 229.61 190.26 232.07Q190.30 234.52 191.03 236.49Q191.77 238.46 193.42 239.72Q195.07 240.98 198.02 240.98Q200.33 240.98 202.86 239.93Q205.39 238.88 207.60 237.09Q209.81 235.30 211.43 232.84Q213.04 230.38 213.60 227.58L213.81 230.94Q214.02 235.44 213.92 239.93Q213.81 244.42 213.32 248.98Q212.62 255.51 209.11 259.44Q205.60 263.37 198.72 263.37Q195.63 263.37 193.98 262.39Q192.33 261.41 191.42 258.67Q191.35 258.53 191.24 258.18Q191.14 257.83 191.00 257.51Q190.86 257.20 190.68 256.95Q190.51 256.71 190.23 256.71Q189.38 256.71 188.75 257.30Q188.12 257.90 187.63 258.71Q187.14 259.51 186.89 260.43Q186.65 261.34 186.58 261.97Q186.37 263.66 187.21 264.71Q188.05 265.76 189.38 266.36Q190.72 266.95 192.30 267.17Q193.88 267.38 195.14 267.38Q197.53 267.38 199.91 266.99Q202.30 266.60 204.58 265.80Q206.86 264.99 208.97 263.69Q211.07 262.39 212.90 260.57Q214.79 258.67 216.02 256.50Q217.25 254.32 217.99 252.04Q218.73 249.76 219.11 247.34Q219.50 244.91 219.78 242.46ZM259.02 230.94Q259.09 230.52 258.35 229.86Q257.61 229.19 257.26 229.19Q256.77 229.19 256.07 230.24Q255.37 231.30 254.24 232.52Q253.12 233.75 251.61 234.81Q250.10 235.86 248.00 235.86Q244.84 235.86 242.98 234.21Q241.12 232.56 240.21 230.07Q239.29 227.58 239.12 224.66Q238.94 221.75 239.22 219.22Q239.50 216.91 240.17 213.89Q240.84 210.87 242.14 208.17Q243.43 205.46 245.50 203.57Q247.58 201.67 250.66 201.67Q253.05 201.67 253.96 202.87Q254.88 204.06 255.26 205.53Q255.65 207.01 256.07 208.20Q256.49 209.40 257.96 209.40L258.46 209.40Q259.02 209.40 259.37 209.22Q259.72 209.04 259.86 208.20L260.49 202.02Q260.63 200.69 259.89 199.85Q259.16 199.01 258.07 198.55Q256.98 198.09 255.68 197.95Q254.38 197.81 253.33 197.81Q248.56 197.81 244.80 200.27Q241.05 202.73 238.31 206.45Q235.57 210.17 233.96 214.62Q232.34 219.08 231.92 223.15Q231.57 226.45 231.92 229.65Q232.27 232.84 233.57 235.37Q234.87 237.89 237.29 239.44Q239.71 240.98 243.57 240.98Q247.51 240.98 251.02 239.23Q254.52 237.47 257.12 234.31Q257.68 233.61 258.28 232.73Q258.88 231.86 259.02 230.94Z" fill="#1c9aea" style="fill: rgb(28, 154, 234);"></path>


  </g>

  <g id="SvgjsG1008" rel="mainfill" name="symbol" xmlns:name="symbol_mainfill" transform="translate(70.32407646179199,-1.6343999862670897) scale(1.2)" fill="#1c9aea"><path fill-rule="evenodd" clip-rule="evenodd" d="M32.135,63.004c-2.109,1.716-3.928,3.281-5.837,4.725  c-2.006,1.518-2.445,3.77-2.483,5.937c-0.095,5.11-1.399,10.429,2.139,15.073c0.84,1.103,0.668,2.399-0.379,3.421  c-1.171,1.138-2.586,1.11-4.062,0.785c-1.355-0.302-1.888-1.16-1.89-2.497c0-6.754-0.033-13.511-0.026-20.265  c0.002-1.205,0.414-2.356,1.402-3.058c3.447-2.453,4.351-5.932,4.1-9.959c-1.015-0.085-1.219,0.938-1.691,1.516  c-3,3.657-5.938,7.368-9.415,10.594c-3.62,3.361-7.364,3.531-10.768,0.603c0.103-0.13,0.223-0.382,0.307-0.367  c5.784,0.757,9.364-2.367,12.408-6.762c2.807-4.051,5.562-8.119,7.538-12.638c1.516-3.467,4.225-6.187,5.747-9.657  c0.648-1.478,2.389-1.88,3.851-2.353c5.386-1.743,10.939-2.263,16.558-1.955c6.767,0.371,6.764,0.428,9.539-5.72  c3.283,4.166,7.226,7.326,12.372,8.338c2.534,0.5,3.26,1.778,3.821,4.116c1.278,5.348,1.065,10.451-0.872,15.596  c-1.386,3.682-1.934,7.578-1.952,11.693c4.658-6.737,10.38-12.5,15.871-18.964c-0.17,2.148,0.499,3.121,2.659,3.366  c2.564,0.287,3.404,3.191,5.357,4.593c0.97,0.692-1.056,4.498-2.418,4.703c-0.762,0.115-1.539,0.087-2.308,0.165  c-3.669,0.37-4.801,1.718-3.512,5.13c1.286,3.393,0.847,6.42-0.708,9.432c-2.462,4.771-1.208,9.832-1.278,14.791  c-0.01,0.72,0.372,1.255,1.079,1.562c0.715,0.311,1.498,0.669,1.065,1.688c-0.322,0.769-1.084,0.655-1.744,0.72  c-3.748,0.351-3.951,0.181-6.179-5.506c-0.905,1.312-2.723,1.822-0.704,3.944c1.338,1.413-0.435,1.961-1.807,2.017  c-4.338,0.176-8.736-0.029-12.999,0.643c-5.114,0.81-10.128-0.139-15.188-0.007c-1.969,0.053-3.762-0.73-5.333-1.954  c-1.438-1.12-1.898-2.604-1.646-4.363c0.118-0.821,0.472-1.632,1.291-1.731c1.215-0.141,0.996,0.948,0.964,1.637  c-0.073,1.564,0.878,2.263,2.125,2.72c3.084,1.128,6.277,0.798,9.45,0.607c1.067-0.064,1.155-0.852,1.113-1.673  c-0.509-9.305,0.346-18.671-1.985-27.9c-1.15-4.546-4.674-6.347-7.823-8.772c-1-0.771-1.351,0.146-1.771,0.729  c-2.595,3.603-5.417,7.022-8.14,10.521c-2.573,3.311-2.587,7.374-1.957,11.368c0.232,1.471,1.416,2.189,2.763,2.688  c0.804,0.294,1.707,0.707,1.511,1.819c-0.179,1.014-0.826,1.692-1.845,2.028c-2.739,0.909-4.331-0.095-5.581-2.642  c-2.866-5.832-2.319-11.73-0.917-17.728c0.154-0.656,0.225-1.33,0.31-1.999C32.283,63.626,32.207,63.438,32.135,63.004z   M65.982,63.484c-1.759,1.442-3.416,1.9-3.428,3.787c-0.031,5.044-0.01,10.09-0.01,15.13c0.321,0.015,0.646,0.023,0.969,0.036  C66.138,76.637,64.817,70.293,65.982,63.484z" fill="#1c9aea" style="fill: rgb(28, 154, 234);"></path><path fill-rule="evenodd" clip-rule="evenodd" d="M70.744,1.362c1.104,3.479,2.027,6.394,3.001,9.458  c1.413-1.784,1.198-4.139,2.347-6.196c0.098,0.379,0.199,0.586,0.197,0.793c-0.005,2.207-0.73,4.77,0.155,6.516  c0.849,1.674,3.744,1.5,5.672,2.321c0.428,0.182,1.128,0.371,1.189,0.662c0.839,4.085,4.543,3.954,7.374,4.917  c1.914,0.652,2.548,1.472,1.115,2.965c-1.242,1.292-0.962,2.879-1.309,4.331c-0.872,3.621-3.861,5.971-7.559,5.81  c-0.829-0.037-1.541-0.21-1.952-0.979c-0.867-1.621-2.188-1.644-3.711-1.141c-1.766,0.584-3.305,1.509-3.232,3.561  c0.078,2.225-0.85,2.338-2.581,1.758c-4.153-1.39-7.578-3.711-10.1-7.354c-0.827-1.199-0.956-2.236-0.057-3.404  c1.292-1.679,2.372-3.574,3.879-5.026c1.716-1.653,2.256-3.411,1.907-5.681C66.354,9.96,67.727,5.768,70.744,1.362z" fill="#1c9aea" style="fill: rgb(28, 154, 234);"></path><path fill-rule="evenodd" clip-rule="evenodd" d="M78.699,43.111c-0.153,0.996,0.051,2.354-0.893,2.026  c-1.763-0.613-1.816-2.526-1.999-4.134c-0.082-0.715-0.134-2.117,0.651-1.896C78.473,39.675,78.138,41.836,78.699,43.111z" fill="#1c9aea" style="fill: rgb(28, 154, 234);"></path></g>


<path fill-rule="evenodd" clip-rule="evenodd" d="M70.744,1.362c1.104,3.479,2.027,6.394,3.001,9.458  c1.413-1.784,1.198-4.139,2.347-6.196c0.098,0.379,0.199,0.586,0.197,0.793c-0.005,2.207-0.73,4.77,0.155,6.516  c0.849,1.674,3.744,1.5,5.672,2.321c0.428,0.182,1.128,0.371,1.189,0.662c0.839,4.085,4.543,3.954,7.374,4.917  c1.914,0.652,2.548,1.472,1.115,2.965c-1.242,1.292-0.962,2.879-1.309,4.331c-0.872,3.621-3.861,5.971-7.559,5.81  c-0.829-0.037-1.541-0.21-1.952-0.979c-0.867-1.621-2.188-1.644-3.711-1.141c-1.766,0.584-3.305,1.509-3.232,3.561  c0.078,2.225-0.85,2.338-2.581,1.758c-4.153-1.39-7.578-3.711-10.1-7.354c-0.827-1.199-0.956-2.236-0.057-3.404  c1.292-1.679,2.372-3.574,3.879-5.026c1.716-1.653,2.256-3.411,1.907-5.681C66.354,9.96,67.727,5.768,70.744,1.362z" fill="#1c9aea" style="fill: rgb(28, 154, 234);"></path>


<path fill-rule="evenodd" clip-rule="evenodd" d="M78.699,43.111c-0.153,0.996,0.051,2.354-0.893,2.026  c-1.763-0.613-1.816-2.526-1.999-4.134c-0.082-0.715-0.134-2.117,0.651-1.896C78.473,39.675,78.138,41.836,78.699,43.111z" fill="#1c9aea" style="fill: rgb(28, 154, 234);"></path>







</svg>
