<?xml version="1.0" encoding="UTF-8" standalone="no"?>
<!-- Created with Inkscape (http://www.inkscape.org/) -->

<svg
   xmlns:dc="http://purl.org/dc/elements/1.1/"
   xmlns:cc="http://creativecommons.org/ns#"
   xmlns:rdf="http://www.w3.org/1999/02/22-rdf-syntax-ns#"
   xmlns:svg="http://www.w3.org/2000/svg"
   xmlns="http://www.w3.org/2000/svg"
   xmlns:sodipodi="http://sodipodi.sourceforge.net/DTD/sodipodi-0.dtd"
   xmlns:inkscape="http://www.inkscape.org/namespaces/inkscape"
   version="1.1"
   id="svg38"
   width="450"
   height="450"
   viewBox="0 0 450 450"
   sodipodi:docname="кот удивлен.svg"
   inkscape:version="0.92.4 (5da689c313, 2019-01-14)">
  <metadata
     id="metadata44">
    <rdf:RDF>
      <cc:Work
         rdf:about="">
        <dc:format>image/svg+xml</dc:format>
        <dc:type
           rdf:resource="http://purl.org/dc/dcmitype/StillImage" />
        <dc:title></dc:title>
      </cc:Work>
    </rdf:RDF>
  </metadata>
  <defs
     id="defs42" />
  <sodipodi:namedview
     pagecolor="#ffffff"
     bordercolor="#666666"
     borderopacity="1"
     objecttolerance="10"
     gridtolerance="10"
     guidetolerance="10"
     inkscape:pageopacity="0"
     inkscape:pageshadow="2"
     inkscape:window-width="1920"
     inkscape:window-height="1017"
     id="namedview40"
     showgrid="false"
     inkscape:zoom="0.52444444"
     inkscape:cx="225"
     inkscape:cy="225"
     inkscape:window-x="-8"
     inkscape:window-y="-8"
     inkscape:window-maximized="1"
     inkscape:current-layer="svg38" />
  <g
     id="g48"
     transform="translate(-2)">
    <path
       style="fill:#fcfdfc"
       d="M 0,225 V 0 H 225 450 V 225 450 H 225 0 Z"
       id="path64"
       inkscape:connector-curvature="0" />
    <path
       style="fill:#fbc387"
       d="m 172.48914,367.62229 c -1.65598,-0.72855 -4.26954,-3.1409 -5.80791,-5.36077 -2.17248,-3.1349 -4.6021,-4.86125 -10.88088,-7.73136 -12.10291,-5.53238 -17.04194,-6.30506 -27.04745,-4.23135 -9.9578,2.06381 -19.63952,2.19323 -24.11712,0.32237 -7.679071,-3.20852 -10.020763,-11.63334 -4.918815,-17.69666 7.909515,-9.39992 26.621985,-10.34385 47.748025,-2.40859 4.93876,1.85507 9.1291,3.22332 9.31187,3.04054 0.18277,-0.18277 -1.23588,-9.72025 -3.15255,-21.19439 -6.89074,-41.25123 -10.34137,-78.72588 -9.0682,-98.48266 0.75795,-11.76152 -0.25546,-16.855 -3.85514,-19.37632 -2.6924,-1.88583 -9.71953,-1.94001 -14.1024,-0.10873 -4.9487,2.0677 -6.59619,5.07656 -6.61331,12.07814 -0.0169,6.8954 -1.6303,10.89642 -4.56547,11.32151 -3.36851,0.48785 -5.91979,-3.34739 -5.91979,-8.89901 0,-5.87733 -1.34501,-6.27584 -5.00154,-1.48188 -3.30343,4.33102 -5.173896,5.02955 -8.184902,3.05667 -6.449354,-4.22578 -5.024022,-9.18483 4.123772,-14.34752 3.05947,-1.72666 5.56267,-3.80415 5.56267,-4.61664 0,-0.8125 -1.75544,-2.63896 -3.90098,-4.05881 -4.873633,-3.22522 -5.61886,-5.73095 -2.710148,-9.11253 3.426798,-3.98389 6.852588,-3.42271 11.874018,1.94508 10.94401,11.69891 26.31706,6.38164 35.78693,-12.37807 l 3.10847,-6.15786 -2.57914,0.64733 c -4.03964,1.01388 -3.26091,-2.07908 0.96837,-3.84619 2.87431,-1.20096 4.08911,-2.67422 6.40144,-7.76342 1.56966,-3.45464 2.63044,-6.64502 2.35728,-7.08972 -0.45036,-0.73319 -2.50622,-0.50475 -9.05624,1.0063 -1.5786,0.36418 -2.25,0.0628 -2.25,-1.00989 0,-1.50924 1.33945,-1.95733 9.51161,-3.18195 l 4.01161,-0.60115 6.84814,-13.5498 c 3.76648,-7.4524 9.92359,-17.63965 13.68247,-22.63835 3.75888,-4.998705 6.62933,-9.420243 6.37878,-9.825644 -0.25055,-0.405401 -1.76929,-1.02564 -3.37498,-1.378308 -4.03572,-0.886392 -5.49641,-2.824265 -4.09816,-5.436928 2.00091,-3.738737 8.08853,-3.958005 17.0057,-0.612522 4.19075,1.572256 4.8019,1.569298 9.94412,-0.04813 6.27655,-1.974219 13.22788,-2.112133 31.59071,-0.62676 34.95216,2.827288 32.56805,2.866662 39.05153,-0.64494 6.68776,-3.622247 8.01767,-3.81685 9.32975,-1.365208 0.67639,1.263844 0.35916,3.146919 -1.09676,6.510295 l -2.04841,4.732123 2.54845,5.739712 c 3.07164,6.91803 7.19803,20.34602 8.98531,29.2397 l 1.30624,6.5 4.96194,0.82498 c 2.72907,0.45373 6.42445,1.03662 8.21195,1.29531 2.08823,0.30221 3.25,1.03203 3.25,2.04165 0,1.14462 -0.611,1.40473 -2.25,0.95785 -4.98849,-1.36014 -12.50036,-1.83273 -13.1228,-0.8256 -0.35283,0.57089 -0.13691,2.31324 0.47983,3.87189 0.61673,1.55866 1.18245,3.89443 1.25715,5.19061 0.11582,2.00962 1.16578,2.67803 7.12959,4.53876 4.97469,1.55211 7.09702,2.71822 7.35142,4.03922 0.28297,1.46933 -0.029,1.6938 -1.49377,1.07493 -1.01828,-0.43022 -4.25191,-1.69847 -7.18585,-2.81832 -6.21134,-2.37081 -7.10237,-1.7745 -7.18539,4.80872 -0.0277,2.2 -0.67394,6.90877 -1.436,10.46394 -0.92089,4.29619 -1.06499,7.06291 -0.42968,8.25 1.18259,2.2097 5.36165,2.32071 10.26338,0.27264 2.71308,-1.1336 3.62212,-2.1061 3.62212,-3.875 0,-7.98079 3.3961,-12.37307 7.02651,-9.08759 1.02307,0.92587 2.14526,2.98157 2.49375,4.56823 0.89991,4.09731 1.89689,4.32187 6.28759,1.41624 4.42937,-2.93122 6.89731,-2.53136 7.85194,1.27218 0.64921,2.58663 0.0396,3.35526 -7.48798,9.44177 -2.51324,2.0321 -2.01066,4.07435 1.3832,5.6207 4.90252,2.23374 2.05108,7.15689 -4.1452,7.15689 -1.98644,0 -3.96343,-1.3507 -7.31841,-5 -5.226,-5.68445 -9.0582,-6.54287 -12.9641,-2.90397 -4.20331,3.91597 -4.25115,5.73515 -0.58068,22.08029 8.29748,36.94986 12.11027,68.22684 11.13273,91.32368 -0.90941,21.4869 -3.64243,29.73991 -16.39217,49.5 -7.616,11.8036 -11.81804,16 -16.02151,16 -2.10084,0 -3.55045,-0.57854 -3.93038,-1.56863 -0.34609,-0.9019 1.79243,-6.22273 5.03139,-12.51854 C 284.465,347.89037 287,342.31209 287,341.51664 c 0,-3.35534 -3.57544,-3.67286 -21.78594,-1.93473 l -17.71406,1.69075 -7.64871,7.27737 c -13.18366,12.5436 -28.62926,18.22614 -46.35129,17.05295 -4.95,-0.32769 -10.20026,-0.86775 -11.66725,-1.20014 -2.24939,-0.50968 -2.71937,-0.23769 -3,1.73619 -0.40036,2.8161 -2.30297,3.26097 -6.34361,1.48326 z m 36.3308,-20.14178 c 3.47597,-0.81946 7.46866,-2.0918 8.87265,-2.82743 2.31673,-1.21385 1.50772,-1.40097 -8.75139,-2.02406 -12.88801,-0.78276 -23.91291,-2.83067 -30.54627,-5.67406 -2.50841,-1.07523 -4.7756,-1.95496 -5.0382,-1.95496 -0.2626,0 -0.3378,1.6875 -0.1671,3.75 0.29471,3.56079 0.60632,3.86715 6.17591,6.07187 10.89639,4.31333 19.24073,5.06652 29.4544,2.65864 z m 14.33534,-223.01775 c 14.85693,-5.06227 18.39806,-23.74564 6.48336,-34.206888 -4.52158,-3.969997 -7.13336,-4.670143 -14.82091,-3.973061 -14.68392,1.331491 -23.51745,13.073022 -19.32696,25.689399 3.62507,10.91405 15.95418,16.48066 27.66451,12.49055 z m -8.92632,-9.13205 c -2.32134,-0.93399 -4.29802,-6.01888 -3.32975,-8.56561 1.15963,-3.05007 2.88108,-4.38042 6.73279,-5.20316 6.93928,-1.48227 11.86985,8.18402 6.42388,12.59389 -2.14366,1.73583 -6.99203,2.31549 -9.82692,1.17488 z m 49.54528,2.48878 C 268.00359,115.21984 270,111.25322 270,105.44966 c 0,-3.92601 -0.51312,-5.16278 -3.29692,-7.946584 -3.52439,-3.524386 -8.8719,-5.488469 -14.96777,-5.497499 -2.88437,-0.0043 -4.62353,0.781502 -7.43761,3.360411 -3.61205,3.310201 -3.67106,3.486166 -3.5603,10.617012 0.0999,6.43068 0.41738,7.56912 2.80646,10.06278 4.90468,5.11938 13.55367,5.87769 20.23038,1.77371 z m -16.13938,-3.89207 C 242.18574,109.64115 245.78809,101 253.02407,101 c 3.45701,0 6.6955,2.67526 7.53538,6.22483 0.51681,2.18421 0.0445,3.32505 -2.38044,5.75 -3.55416,3.55417 -6.8574,3.85259 -10.54415,0.95259 z M 252,107 c 0,-0.55 -0.45,-1 -1,-1 -0.55,0 -1,0.45 -1,1 0,0.55 0.45,1 1,1 0.55,0 1,-0.45 1,-1 z"
       id="path62"
       inkscape:connector-curvature="0" />
    <path
       style="fill:#f2a756"
       d="m 172.48914,367.62229 c -1.65598,-0.72855 -4.26954,-3.1409 -5.80791,-5.36077 -2.17248,-3.1349 -4.6021,-4.86125 -10.88088,-7.73136 -12.10291,-5.53238 -17.04194,-6.30506 -27.04745,-4.23135 -9.9578,2.06381 -19.63952,2.19323 -24.11712,0.32237 -7.679071,-3.20852 -10.020763,-11.63334 -4.918815,-17.69666 7.909515,-9.39992 26.621985,-10.34385 47.748025,-2.40859 4.93876,1.85507 9.1291,3.22332 9.31187,3.04054 0.18277,-0.18277 -1.23588,-9.72025 -3.15255,-21.19439 -6.89074,-41.25123 -10.34137,-78.72588 -9.0682,-98.48266 C 145.59327,197.78507 143.2303,193 134.24538,193 c -5.43727,0 -10.65902,2.14826 -12.55806,5.16647 -0.80753,1.28344 -1.68198,5.58946 -1.94322,9.56893 C 119.25177,215.23521 117.98271,218 115.03254,218 111.83543,218 109.5,214.15655 109.5,208.89501 109.5,206.20276 109.05985,204 108.52188,204 c -0.53796,0 -2.62671,1.80353 -4.64165,4.00785 -3.09673,3.38777 -4.023634,3.87465 -5.990947,3.1469 -1.280073,-0.47353 -3.232088,-2.07269 -4.337811,-3.55369 -1.835677,-2.45869 -1.881607,-2.92219 -0.528466,-5.33298 0.815067,-1.45214 4.068327,-4.15155 7.229464,-5.99868 3.16114,-1.84713 5.74753,-4.007 5.74753,-4.79972 0,-0.79272 -1.75544,-2.603 -3.90098,-4.02285 -4.873633,-3.22522 -5.61886,-5.73095 -2.710148,-9.11253 3.505788,-4.07572 7.101178,-3.47214 11.756018,1.97355 3.20378,3.74811 4.83375,4.76773 9.1747,5.73919 4.77374,1.06832 5.77415,0.96823 10.45664,-1.04612 6.30994,-2.71447 12.05444,-8.74152 16.24616,-17.04528 l 3.1359,-6.21219 -2.57914,0.64733 c -4.03964,1.01388 -3.26091,-2.07908 0.96837,-3.84619 2.87431,-1.20096 4.08911,-2.67422 6.40144,-7.76342 1.56966,-3.45464 2.63044,-6.64502 2.35728,-7.08972 -0.45036,-0.73319 -2.50622,-0.50475 -9.05624,1.0063 -1.5786,0.36418 -2.25,0.0628 -2.25,-1.00989 0,-1.50924 1.33945,-1.95733 9.51161,-3.18195 l 4.01161,-0.60115 6.84814,-13.5498 c 3.76648,-7.4524 9.92359,-17.63965 13.68247,-22.63835 3.75888,-4.998705 6.62933,-9.420243 6.37878,-9.825644 -0.25055,-0.405401 -1.76929,-1.02564 -3.37498,-1.378308 -4.03572,-0.886392 -5.49641,-2.824265 -4.09816,-5.436928 2.00091,-3.738737 8.08853,-3.958005 17.0057,-0.612522 4.19075,1.572256 4.8019,1.569298 9.94412,-0.04813 6.27655,-1.974219 13.22788,-2.112133 31.59071,-0.62676 34.95216,2.827288 32.56805,2.866662 39.05153,-0.64494 6.68223,-3.61925 8.01798,-3.816276 9.32432,-1.375359 0.67175,1.255184 0.35321,3.061553 -1.09818,6.227513 -1.78048,3.883815 -1.87913,4.849667 -0.76417,7.481979 3.20505,7.566819 8.29747,23.481439 9.88285,30.885469 l 1.74232,8.13702 4.93067,0.82498 c 2.71186,0.45373 6.39316,1.03662 8.18066,1.29531 2.08823,0.30221 3.25,1.03203 3.25,2.04165 0,1.14462 -0.611,1.40473 -2.25,0.95785 -4.98849,-1.36014 -12.50036,-1.83273 -13.1228,-0.8256 -0.35283,0.57089 -0.13691,2.31324 0.47983,3.87189 0.61673,1.55866 1.18245,3.89443 1.25715,5.19061 0.11582,2.00962 1.16578,2.67803 7.12959,4.53876 4.97469,1.55211 7.09702,2.71822 7.35142,4.03922 0.28297,1.46933 -0.029,1.6938 -1.49377,1.07493 -1.01828,-0.43022 -4.25191,-1.69847 -7.18585,-2.81832 -6.21134,-2.37081 -7.10237,-1.7745 -7.18539,4.80872 -0.0277,2.2 -0.67394,6.90877 -1.436,10.46394 -1.63717,7.63778 -0.83212,10.03606 3.36888,10.03606 3.83055,0 9.69974,-2.5486 10.46565,-4.54453 0.34171,-0.89048 0.62129,-3.36641 0.62129,-5.50207 0,-7.45703 6.89055,-7.28119 8.53762,0.21786 0.89396,4.07018 2.87158,4.50365 6.52434,1.43006 3.60652,-3.03469 4.25665,-3.13985 6.36661,-1.02989 2.42605,2.42605 1.88013,4.99829 -1.67857,7.90905 -1.7875,1.46204 -4.04997,3.30832 -5.02772,4.10284 -2.13336,1.73357 -0.91341,4.90386 2.27666,5.91634 2.95344,0.93739 2.46727,4.06459 -0.8452,5.43666 -4.06795,1.685 -7.82096,0.3795 -10.93737,-3.8046 -3.46084,-4.64653 -4.1253,-5.09788 -7.53211,-5.11641 -4.0739,-0.0222 -6.66233,1.68795 -8.22851,5.43635 -1.24824,2.98745 -1.05671,4.70782 2.07852,18.66951 8.31018,37.00671 12.12316,68.26941 11.14508,91.37883 -0.90941,21.4869 -3.64243,29.73991 -16.39217,49.5 -7.616,11.8036 -11.81804,16 -16.02151,16 -2.10084,0 -3.55045,-0.57854 -3.93038,-1.56863 -0.34609,-0.9019 1.79243,-6.22273 5.03139,-12.51854 C 284.465,347.89037 287,342.31209 287,341.51664 c 0,-3.35534 -3.57544,-3.67286 -21.78594,-1.93473 L 247.5,341.27266 240,348.39929 c -13.27532,12.61443 -28.83964,18.37279 -46.5,17.20369 -4.95,-0.32769 -10.20026,-0.86775 -11.66725,-1.20014 -2.24939,-0.50968 -2.71937,-0.23769 -3,1.73619 -0.40036,2.8161 -2.30297,3.26097 -6.34361,1.48326 z m 36.3308,-20.14178 c 3.47597,-0.81946 7.46866,-2.0918 8.87265,-2.82743 2.31673,-1.21385 1.50772,-1.40097 -8.75139,-2.02406 -12.88801,-0.78276 -23.91291,-2.83067 -30.54627,-5.67406 -2.50841,-1.07523 -4.7756,-1.95496 -5.0382,-1.95496 -0.2626,0 -0.3378,1.6875 -0.1671,3.75 0.29471,3.56079 0.60632,3.86715 6.17591,6.07187 10.89639,4.31333 19.24073,5.06652 29.4544,2.65864 z M 264.5,326.27174 c 9.73965,-5.10474 14.7007,-14.19466 17.12822,-31.3833 1.86078,-13.17562 1.40631,-33.03517 -1.07702,-47.06485 -4.65554,-26.30168 -18.95913,-48.47945 -37.02563,-57.4084 -7.13413,-3.52588 -7.75631,-3.65302 -15.72678,-3.21386 -6.38888,0.35202 -9.48923,1.06676 -13.4714,3.10559 -7.19809,3.68537 -14.63577,11.61643 -19.83009,21.14555 -13.80688,25.32906 -21.53458,73.56125 -14.94736,93.29347 2.39565,7.17624 7.59983,12.93689 14.73613,16.31183 9.63363,4.55599 33.83786,7.92079 54.21393,7.53667 9.95611,-0.18769 12.6813,-0.5833 16,-2.3227 z M 236.06978,143.25 c 0.56115,-1.5125 1.74179,-3.29843 2.62363,-3.96874 4.14345,-3.14952 -4.99219,-5.97692 -9.25071,-2.86302 -1.06675,0.78003 -1.71526,1.56753 -1.44113,1.75 0.27414,0.18247 1.39843,0.82715 2.49843,1.43262 1.1,0.60548 2.14239,2.29298 2.31642,3.75 0.4101,3.43339 1.95994,3.38535 3.25336,-0.10086 z m -11.5465,-19.12157 c 16.03123,-7.28244 16.62601,-28.269232 1.04209,-36.769959 -2.19271,-1.196077 -4.66249,-1.477157 -9.76903,-1.111787 -19.23537,1.376284 -28.20741,19.854946 -15.9775,32.906986 6.18396,6.59966 16.53776,8.68461 24.70444,4.97476 z m -10.29432,-8.79772 c -2.32134,-0.93399 -4.29802,-6.01888 -3.32975,-8.56561 1.15963,-3.05007 2.88108,-4.38042 6.73279,-5.20316 6.93928,-1.48227 11.86985,8.18402 6.42388,12.59389 -2.14366,1.73583 -6.99203,2.31549 -9.82692,1.17488 z m 49.54528,2.48878 C 268.00359,115.21984 270,111.25322 270,105.44966 c 0,-3.92601 -0.51312,-5.16278 -3.29692,-7.946584 -7.11256,-7.112558 -21.07762,-7.248966 -24.84954,-0.242726 -0.66317,1.231808 -1.16025,5.3298 -1.10464,9.10666 0.0887,6.02084 0.43306,7.21348 2.79496,9.67877 4.90468,5.11938 13.55367,5.87769 20.23038,1.77371 z m -16.13938,-3.89207 C 242.18574,109.64115 245.78809,101 253.02407,101 c 3.45701,0 6.6955,2.67526 7.53538,6.22483 0.51681,2.18421 0.0445,3.32505 -2.38044,5.75 -3.55416,3.55417 -6.8574,3.85259 -10.54415,0.95259 z M 252,107 c 0,-0.55 -0.45,-1 -1,-1 -0.55,0 -1,0.45 -1,1 0,0.55 0.45,1 1,1 0.55,0 1,-0.45 1,-1 z"
       id="path60"
       inkscape:connector-curvature="0" />
    <path
       style="fill:#a8a29d"
       d="m 172.48914,367.62229 c -1.65598,-0.72855 -4.26954,-3.1409 -5.80791,-5.36077 -2.17248,-3.1349 -4.6021,-4.86125 -10.88088,-7.73136 -12.10291,-5.53238 -17.04194,-6.30506 -27.04745,-4.23135 -9.9578,2.06381 -19.63952,2.19323 -24.11712,0.32237 -7.679071,-3.20852 -10.020763,-11.63334 -4.918815,-17.69666 7.909515,-9.39992 26.621985,-10.34385 47.748025,-2.40859 4.93876,1.85507 9.1291,3.22332 9.31187,3.04054 0.18277,-0.18277 -1.23588,-9.72025 -3.15255,-21.19439 -6.89074,-41.25123 -10.34137,-78.72588 -9.0682,-98.48266 C 145.59327,197.78507 143.2303,193 134.24538,193 c -5.43727,0 -10.65902,2.14826 -12.55806,5.16647 -0.80753,1.28344 -1.68198,5.58946 -1.94322,9.56893 C 119.25177,215.23521 117.98271,218 115.03254,218 111.83543,218 109.5,214.15655 109.5,208.89501 109.5,206.20276 109.05985,204 108.52188,204 c -0.53796,0 -2.62671,1.80353 -4.64165,4.00785 -3.09673,3.38777 -4.023634,3.87465 -5.990947,3.1469 -1.280073,-0.47353 -3.232088,-2.07269 -4.337811,-3.55369 -1.835677,-2.45869 -1.881607,-2.92219 -0.528466,-5.33298 0.815067,-1.45214 4.068327,-4.15155 7.229464,-5.99868 3.16114,-1.84713 5.74753,-4.007 5.74753,-4.79972 0,-0.79272 -1.75544,-2.603 -3.90098,-4.02285 -4.873633,-3.22522 -5.61886,-5.73095 -2.710148,-9.11253 3.505788,-4.07572 7.101178,-3.47214 11.756018,1.97355 3.20378,3.74811 4.83375,4.76773 9.1747,5.73919 4.77374,1.06832 5.77415,0.96823 10.45664,-1.04612 6.30994,-2.71447 12.05444,-8.74152 16.24616,-17.04528 l 3.1359,-6.21219 -2.57914,0.64733 c -4.03964,1.01388 -3.26091,-2.07908 0.96837,-3.84619 2.87431,-1.20096 4.08911,-2.67422 6.40144,-7.76342 1.56966,-3.45464 2.63044,-6.64502 2.35728,-7.08972 -0.45036,-0.73319 -2.50622,-0.50475 -9.05624,1.0063 -1.5786,0.36418 -2.25,0.0628 -2.25,-1.00989 0,-1.50924 1.33945,-1.95733 9.51161,-3.18195 l 4.01161,-0.60115 6.84814,-13.5498 c 3.76648,-7.4524 9.92359,-17.63965 13.68247,-22.63835 3.75888,-4.998705 6.62933,-9.420243 6.37878,-9.825644 -0.25055,-0.405401 -1.76929,-1.02564 -3.37498,-1.378308 -4.03572,-0.886392 -5.49641,-2.824265 -4.09816,-5.436928 2.00091,-3.738737 8.08853,-3.958005 17.0057,-0.612522 4.19075,1.572256 4.8019,1.569298 9.94412,-0.04813 6.27655,-1.974219 13.22788,-2.112133 31.59071,-0.62676 34.95216,2.827288 32.56805,2.866662 39.05153,-0.64494 6.68223,-3.61925 8.01798,-3.816276 9.32432,-1.375359 0.67175,1.255184 0.35321,3.061553 -1.09818,6.227513 -1.78048,3.883815 -1.87913,4.849667 -0.76417,7.481979 3.20505,7.566819 8.29747,23.481439 9.88285,30.885469 l 1.74232,8.13702 4.93067,0.82498 c 2.71186,0.45373 6.39316,1.03662 8.18066,1.29531 2.08823,0.30221 3.25,1.03203 3.25,2.04165 0,1.14462 -0.611,1.40473 -2.25,0.95785 -4.98849,-1.36014 -12.50036,-1.83273 -13.1228,-0.8256 -0.35283,0.57089 -0.13691,2.31324 0.47983,3.87189 0.61673,1.55866 1.18245,3.89443 1.25715,5.19061 0.11582,2.00962 1.16578,2.67803 7.12959,4.53876 4.97469,1.55211 7.09702,2.71822 7.35142,4.03922 0.28297,1.46933 -0.029,1.6938 -1.49377,1.07493 -1.01828,-0.43022 -4.25191,-1.69847 -7.18585,-2.81832 -6.21134,-2.37081 -7.10237,-1.7745 -7.18539,4.80872 -0.0277,2.2 -0.67394,6.90877 -1.436,10.46394 -1.63717,7.63778 -0.83212,10.03606 3.36888,10.03606 3.83055,0 9.69974,-2.5486 10.46565,-4.54453 0.34171,-0.89048 0.62129,-3.36641 0.62129,-5.50207 0,-7.45703 6.89055,-7.28119 8.53762,0.21786 0.89396,4.07018 2.87158,4.50365 6.52434,1.43006 3.60652,-3.03469 4.25665,-3.13985 6.36661,-1.02989 2.42605,2.42605 1.88013,4.99829 -1.67857,7.90905 -1.7875,1.46204 -4.04997,3.30832 -5.02772,4.10284 -2.13336,1.73357 -0.91341,4.90386 2.27666,5.91634 2.95344,0.93739 2.46727,4.06459 -0.8452,5.43666 -4.06795,1.685 -7.82096,0.3795 -10.93737,-3.8046 -3.46084,-4.64653 -4.1253,-5.09788 -7.53211,-5.11641 -4.0739,-0.0222 -6.66233,1.68795 -8.22851,5.43635 -1.24824,2.98745 -1.05671,4.70782 2.07852,18.66951 8.31018,37.00671 12.12316,68.26941 11.14508,91.37883 -0.90941,21.4869 -3.64243,29.73991 -16.39217,49.5 -7.616,11.8036 -11.81804,16 -16.02151,16 -2.10084,0 -3.55045,-0.57854 -3.93038,-1.56863 -0.34609,-0.9019 1.79243,-6.22273 5.03139,-12.51854 C 284.465,347.89037 287,342.31209 287,341.51664 c 0,-3.35534 -3.57544,-3.67286 -21.78594,-1.93473 L 247.5,341.27266 240,348.39929 c -13.27532,12.61443 -28.83964,18.37279 -46.5,17.20369 -4.95,-0.32769 -10.20026,-0.86775 -11.66725,-1.20014 -2.24939,-0.50968 -2.71937,-0.23769 -3,1.73619 -0.40036,2.8161 -2.30297,3.26097 -6.34361,1.48326 z m -0.97685,-12.21055 c -2.26492,-8.65767 -4.03806,-24.28597 -2.88613,-25.4379 0.60728,-0.60728 3.56665,0.14165 8.12092,2.05515 11.62997,4.88639 23.90385,6.26081 50.25292,5.62729 12.375,-0.29754 30.15,-1.26065 39.5,-2.14025 9.35,-0.8796 18.45703,-1.33618 20.23785,-1.01462 6.73301,1.21577 6.49006,7.04262 -0.82709,19.83643 -4.41586,7.72099 -4.39607,7.66216 -2.57698,7.66216 1.44377,0 14.9176,-21.9384 19.14465,-31.17175 4.40588,-9.62399 5.79865,-18.55721 5.81982,-37.32825 0.0261,-23.14426 -3.79826,-52.1917 -11.22258,-85.23941 -2.57599,-11.46648 -2.60866,-15.38443 -0.15344,-18.39981 l 1.92223,-2.36078 -3.17223,-1.08482 c -5.73457,-1.96107 -6.32844,-4.51217 -4.15883,-17.86516 1.37799,-8.48093 1.60662,-12.13736 0.83553,-13.36287 -1.59581,-2.53624 -14.84415,-4.39103 -26.84893,-3.75888 -12.40419,0.65318 -14.31265,-0.23908 -12.05722,-5.63708 1.10495,-2.64451 2.48688,-3.86845 5.75565,-5.0976 7.18475,-2.70167 12.88028,-3.64354 22.18749,-3.66914 L 290.27185,137 289.6803,132.75 c -0.89906,-6.45936 -6.0601,-23.61792 -9.22545,-30.67126 -2.46355,-5.489514 -2.67144,-6.666569 -1.65371,-9.362859 0.64024,-1.696197 1.02871,-3.219366 0.86326,-3.384819 -0.16546,-0.165453 -2.05278,0.592373 -4.19406,1.684057 C 273.32907,92.106804 270.99727,93 270.28856,93 c -1.77683,0 -1.63365,0.61423 0.96144,4.124273 1.76818,2.39159 2.25,4.380407 2.25,9.287347 0,5.30222 -0.42354,6.79936 -2.80793,9.92545 -4.29361,5.62922 -9.70124,7.95901 -17.3439,7.47236 -5.06019,-0.3222 -7.19092,-1.01845 -10.71191,-3.50028 l -4.39527,-3.09807 -3.34187,3.54303 c -11.87718,12.59209 -34.36621,10.01161 -41.92814,-4.811 -2.71423,-5.32033 -2.69775,-15.23883 0.0328,-19.71728 C 194.10168,94.425037 195,92.749093 195,92.501511 c 0,-0.582353 -5.65309,-3.510926 -6.70034,-3.471102 -0.43981,0.01672 -0.0122,0.489085 0.95034,1.04969 2.41945,1.409199 2.22265,6.182182 -0.35093,8.511242 -5.84367,5.288449 -24.80495,38.133889 -23.36203,40.468589 0.36281,0.58704 4.22946,0.72961 9.78147,0.36065 10.17755,-0.67635 26.5359,1.337 33.49865,4.12294 2.65423,1.06201 4.82491,2.87954 6.17804,5.17291 1.14734,1.9446 1.95528,3.59142 1.79544,3.6596 -0.15985,0.0682 -1.21694,0.63645 -2.34908,1.26281 -1.36384,0.75456 -5.76057,0.96337 -13.02962,0.61884 -14.32538,-0.679 -39.64221,2.29446 -44.35972,5.21005 -0.60611,0.37459 -2.62312,3.6851 -4.48225,7.35667 -4.79986,9.4792 -8.97947,14.84516 -14.08507,18.08304 -4.50309,2.85578 -4.82484,4.08956 -1.06823,4.0963 3.33463,0.006 8.11328,3.47968 9.80602,7.1282 1.24788,2.68968 1.66661,8.80625 2.07896,30.36806 0.54877,28.69482 2.0924,44.9565 7.69039,81.01571 1.70635,10.99136 3.73218,24.03429 4.50186,28.98429 1.89444,12.18363 5.1184,20.96944 9.18814,25.03919 2.40725,2.40724 2.63099,0.75595 0.83025,-6.12745 z m 39.15438,-183.07841 c -1.49046,-1.49046 -0.53691,-6.1066 1.69445,-8.20286 1.29861,-1.21998 5.91111,-3.75854 10.25,-5.64124 6.26257,-2.71742 8.14072,-4.03259 9.11051,-6.37961 2.18331,-5.2839 3.96359,-4.88378 5.20153,1.16905 0.52416,2.56285 1.46144,3.2631 7.09042,5.29728 6.66223,2.40756 9.56188,4.88438 10.61077,9.06348 1.37656,5.48464 -3.07331,6.58224 -13.62435,3.36057 -8.20832,-2.50634 -12.21519,-2.50634 -19.5,0 -5.96776,2.05321 -9.65913,2.50753 -10.83333,1.33333 z m -3.91144,186.66256 c 3.99038,-0.5183 10.52366,-2.30301 14.5184,-3.96603 C 228.30551,352.10248 236,346.82387 236,344.9272 c 0,-1.87648 -5.40966,-0.8475 -9.8894,1.88107 -9.27188,5.64742 -16.66731,7.69587 -27.6106,7.64783 -6.52441,-0.0286 -11.88777,-0.63687 -15.4315,-1.75 -6.73828,-2.11658 -7.07207,-2.1145 -7.05319,0.0439 0.0277,3.17038 1.51485,4.21384 8.03765,5.63979 7.80371,1.70597 13.13794,1.84838 22.70227,0.6061 z m -49.13551,-15.37491 c -1.4527,-5.78802 -29.9659,-13.66219 -43.5013,-12.01326 -3.81736,0.46505 -6.26182,1.4421 -8.40998,3.36148 l -3.02839,2.70587 1.90997,3.89511 c 2.74893,5.60603 6.4375,6.24551 19.63453,3.40402 5.6515,-1.21684 10.87499,-2.53496 11.60777,-2.92914 1.51455,-0.81473 8.08635,1.01922 16.16768,4.5118 5.93138,2.56342 6.87609,2.06988 5.61972,-2.93588 z m 51.20022,3.85953 c 3.47597,-0.81946 7.46866,-2.0918 8.87265,-2.82743 2.31673,-1.21385 1.50772,-1.40097 -8.75139,-2.02406 -12.88801,-0.78276 -23.91291,-2.83067 -30.54627,-5.67406 -2.50841,-1.07523 -4.7756,-1.95496 -5.0382,-1.95496 -0.2626,0 -0.3378,1.6875 -0.1671,3.75 0.29471,3.56079 0.60632,3.86715 6.17591,6.07187 10.89639,4.31333 19.24073,5.06652 29.4544,2.65864 z M 116.74668,204.70362 c -0.44191,-6.17632 -0.25137,-7.13881 1.92536,-9.7257 1.32869,-1.57906 3.30257,-3.15247 4.3864,-3.49647 2.78188,-0.88293 1.39715,-2.48145 -2.14958,-2.48145 -4.4895,0 -9.54335,-2.48973 -13.23617,-6.52065 -3.06338,-3.34387 -3.421,-3.48754 -4.73623,-1.90279 -1.24775,1.50345 -1.19504,1.84998 0.42878,2.81881 4.95441,2.95599 6.63476,4.87411 6.63476,7.57362 0,2.99851 -3.82652,6.97348 -9.85227,10.2345 -1.949984,1.05529 -3.14773,2.48221 -3.14773,3.75 0,3.10897 2.687344,2.4722 6.13414,-1.45349 2.12506,-2.4203 3.92877,-3.5 5.84701,-3.5 3.91436,0 5.20328,1.99443 4.42685,6.84994 -0.87039,5.44315 0.0217,7.86829 2.2224,6.04184 1.28811,-1.06904 1.50947,-2.69278 1.11628,-8.18816 z M 321.75,190.88491 c -3.7929,-2.82982 -3.45315,-5.13501 1.45145,-9.84778 2.31079,-2.22042 3.71589,-4.03713 3.12244,-4.03713 -0.59345,0 -1.65808,0.69775 -2.36585,1.55056 -0.7161,0.86285 -2.43361,1.41725 -3.87244,1.25 -2.0411,-0.23727 -2.89499,-1.19557 -4.05477,-4.55056 -1.8618,-5.38583 -3.46257,-5.50556 -2.75173,-0.20582 0.43153,3.21729 0.13059,4.42787 -1.47186,5.92078 -2.00868,1.87137 -2.00592,1.88094 0.99269,3.43158 1.65384,0.85523 3.98713,3.14088 5.18509,5.07922 1.42796,2.31049 2.92491,3.51333 4.34654,3.49256 2.04196,-0.0298 2.00804,-0.15135 -0.58156,-2.08341 z m -146.25,-38.87164 14,-2.94486 -9,0.5972 c -4.95,0.32846 -10.8887,1.16187 -13.19712,1.85201 C 163.22094,152.738 162,152.57475 162,150.80858 c 0,-1.61401 4.89568,-2.71815 18.9023,-4.26311 7.70622,-0.85001 14.36825,-1.59871 14.80451,-1.66378 C 196.14306,144.81661 195.15,144.41985 193.5,144 c -1.65,-0.41985 -9.19864,-0.81661 -16.77475,-0.88169 -13.40696,-0.11515 -13.79847,-0.0582 -14.66296,2.13169 -0.48851,1.2375 -1.60841,3.9375 -2.48866,6 -2.00135,4.68929 -2.60142,4.66053 15.92637,0.76327 z m 115.05887,-3.54507 c -1.22048,-0.92313 -4.00489,-1.42654 -7.5,-1.35598 L 277.5,147.22444 283,148.5 c 3.025,0.70156 6.4,1.31175 7.5,1.35598 1.9729,0.0793 1.9737,0.0605 0.0589,-1.38778 z m 0.6657,-4.0261 c 0.30685,-0.30685 0.31377,-1.49149 0.0154,-2.63254 -0.51929,-1.98575 -0.97278,-2.045 -10.58579,-1.38291 -11.54217,0.79495 -16.34089,2.44415 -7.65416,2.63055 3.025,0.0649 7.75,0.46846 10.5,0.89679 7.08744,1.10392 7.10749,1.10518 7.72457,0.48811 z m -66.70129,-20.31367 c 16.03123,-7.28244 16.62601,-28.269232 1.04209,-36.769959 -2.19271,-1.196077 -4.66249,-1.477157 -9.76903,-1.111787 -19.23537,1.376284 -28.20741,19.854946 -15.9775,32.906986 6.18396,6.59966 16.53776,8.68461 24.70444,4.97476 z m -10.29432,-8.79772 c -2.32134,-0.93399 -4.29802,-6.01888 -3.32975,-8.56561 1.15963,-3.05007 2.88108,-4.38042 6.73279,-5.20316 6.93928,-1.48227 11.86985,8.18402 6.42388,12.59389 -2.14366,1.73583 -6.99203,2.31549 -9.82692,1.17488 z m 49.54528,2.48878 C 268.00359,115.21984 270,111.25322 270,105.44966 c 0,-3.92601 -0.51312,-5.16278 -3.29692,-7.946584 -7.11256,-7.112558 -21.07762,-7.248966 -24.84954,-0.242726 -0.66317,1.231808 -1.16025,5.3298 -1.10464,9.10666 0.0887,6.02084 0.43306,7.21348 2.79496,9.67877 4.90468,5.11938 13.55367,5.87769 20.23038,1.77371 z m -16.13938,-3.89207 C 242.18574,109.64115 245.78809,101 253.02407,101 c 3.45701,0 6.6955,2.67526 7.53538,6.22483 0.51681,2.18421 0.0445,3.32505 -2.38044,5.75 -3.55416,3.55417 -6.8574,3.85259 -10.54415,0.95259 z M 252,107 c 0,-0.55 -0.45,-1 -1,-1 -0.55,0 -1,0.45 -1,1 0,0.55 0.45,1 1,1 0.55,0 1,-0.45 1,-1 z M 240.41821,93.393011 C 242.8527,92.45881 242.29295,91 239.5,91 c -1.55556,0 -2.5,0.566667 -2.5,1.5 0,1.613965 0.91589,1.853242 3.41821,0.893011 z"
       id="path58"
       inkscape:connector-curvature="0" />
    <path
       style="fill:#ad865c"
       d="m 171.93936,365.35667 c -1.40836,-0.87456 -3.57461,-3.0699 -4.81391,-4.87853 -1.70207,-2.48402 -4.62265,-4.31426 -11.93935,-7.48206 -11.67083,-5.05293 -18.02453,-5.87547 -27.94888,-3.61823 C 109.87335,353.32718 98,349.31575 98,339.5 c 0,-13.64139 28.05074,-17.4128 51.70508,-6.95172 3.04908,1.34844 6.16279,2.45172 6.91935,2.45172 1.79889,0 1.7568,-3.51388 -0.16172,-13.5 -6.34034,-33.0022 -9.62325,-63.23849 -10.33487,-95.18627 L 145.5,198.12746 l -2.83329,-2.95539 c -1.55832,-1.62546 -4.05967,-3.20066 -5.55857,-3.50044 -3.94069,-0.78814 -11.07807,1.06806 -14.68478,3.81903 -2.89769,2.21018 -3.15935,2.92977 -3.72298,10.23885 -0.33344,4.32388 -0.90057,8.6286 -1.2603,9.56605 -1.83737,4.78811 -6.81754,-1.06103 -6.89205,-8.09462 -0.0266,-2.51293 -0.56561,-4.70629 -1.20926,-4.92102 -0.63868,-0.21308 -2.96877,1.4937 -5.17797,3.79282 -3.31442,3.44932 -4.463802,4.06803 -6.573543,3.53852 -2.656002,-0.66662 -4.306691,-4.29406 -3.230382,-7.09888 0.314913,-0.82065 3.175944,-3.14544 6.357845,-5.16621 8.56126,-5.4371 8.7666,-6.43834 2.21022,-10.77714 -4.41664,-2.9228 -5.31101,-6.75686 -1.99068,-8.53385 3.44442,-1.8434 5.89142,-1.13028 8.68376,2.53067 5.72626,7.50751 14.26178,9.29165 23.18327,4.84588 8.4716,-4.22158 11.11012,-7.98172 22.14868,-31.56406 2.22752,-4.75878 4.05003,-9.09565 4.05003,-9.6375 0,-0.54184 3.05374,-6.99829 6.78609,-14.34767 6.95197,-13.68914 12.17947,-22.04607 18.58264,-29.70711 C 186.36593,97.765849 188,95.194182 188,94.44057 188,92.814938 184.92605,91 182.17273,91 c -3.06128,0 -3.45092,-2.771619 -0.64784,-4.608265 2.78878,-1.827277 6.16793,-1.522369 14.21173,1.282352 5.76916,2.011596 6.27858,2.712229 3.17837,4.371411 -1.14676,0.613727 -2.93688,2.992059 -3.97804,5.285184 C 188.48034,111.55114 199.1986,127 215.52122,127 c 9.3761,0 16.47988,-4.25636 20.65481,-12.3757 l 1.99287,-3.8757 1.81659,2.98714 c 3.25293,5.34901 7.73129,7.7311 14.56756,7.74864 C 264.8835,121.51089 271,115.73009 271,105.9401 c 0,-6.849125 -3.07245,-11.095315 -9.65002,-13.336518 -10.01694,-3.413112 -16.96723,-1.570036 -21.36793,5.666336 l -1.79237,2.947312 -1.94966,-4.358615 c -1.07231,-2.397238 -2.90438,-5.206256 -4.07126,-6.242262 -1.16688,-1.036006 -1.88065,-2.273506 -1.58616,-2.75 0.7223,-1.168711 8.98875,-1.078605 19.9174,0.217103 15.78925,1.871983 20.81695,1.492953 27.07963,-2.041487 7.62754,-4.304717 8.86057,-3.028676 5.36234,5.549393 -1.13159,2.774792 -0.94615,3.850043 1.81086,10.499998 3.57555,8.62433 7.48123,22.63735 9.86903,35.40864 2.00479,10.72278 1.9317,24.30314 -0.17978,33.40153 -2.64149,11.3822 -0.18842,14.46298 9.17183,11.51882 5.95707,-1.87372 7.37795,-3.52559 7.4014,-8.60461 0.0321,-6.94593 4.4699,-7.74132 6.18847,-1.10915 1.32454,5.11157 3.25368,5.92772 6.85287,2.89919 3.5342,-2.97383 6.44119,-3.35676 7.35739,-0.96918 0.43641,1.13726 -0.90392,3.04498 -4.39301,6.25267 -2.76157,2.53884 -5.02103,5.13737 -5.02103,5.77451 0,0.63714 1.42879,2.36068 3.17509,3.8301 3.60839,3.03625 2.71685,4.46379 -2.80463,4.49081 -2.493,0.0122 -3.86032,-0.87652 -6.72245,-4.36937 -1.9761,-2.41157 -4.72652,-4.66919 -6.11204,-5.01694 -3.84156,-0.96417 -8.79509,1.61069 -11.00963,5.72286 -1.77293,3.29211 -1.83584,4.15 -0.68942,9.40074 8.92722,40.88751 11.55048,56.57945 13.3771,80.01957 1.39037,17.84197 0.18248,35.74795 -3.12449,46.31799 -4.08728,13.06413 -22.38511,39.97566 -27.14613,39.92515 -4.28105,-0.0454 -4.07926,-1.58717 1.65722,-12.66179 6.30323,-12.16875 6.67838,-15.7128 1.79305,-16.93894 -1.41673,-0.35558 -10.52238,0.0968 -20.23477,1.00527 l -17.6589,1.65179 -4,4.33257 c -8.83374,9.56821 -19.88902,16.08102 -31.5,18.55706 -6.54151,1.39498 -22.86923,1.44246 -28.5,0.0829 -5.49863,-1.32767 -5.5,-1.3273 -5.5,1.48647 0,2.87404 -1.42382,3.11507 -5.06064,0.85667 z m -0.42707,-9.94493 c -2.26492,-8.65767 -4.03806,-24.28597 -2.88613,-25.4379 0.60728,-0.60728 3.56665,0.14165 8.12092,2.05515 11.62997,4.88639 23.90385,6.26081 50.25292,5.62729 12.375,-0.29754 30.15,-1.26065 39.5,-2.14025 9.35,-0.8796 18.45703,-1.33618 20.23785,-1.01462 6.73301,1.21577 6.49006,7.04262 -0.82709,19.83643 -4.41586,7.72099 -4.39607,7.66216 -2.57698,7.66216 1.44377,0 14.9176,-21.9384 19.14465,-31.17175 4.40588,-9.62399 5.79865,-18.55721 5.81982,-37.32825 0.0261,-23.14426 -3.79826,-52.1917 -11.22258,-85.23941 -2.57599,-11.46648 -2.60866,-15.38443 -0.15344,-18.39981 l 1.92223,-2.36078 -3.17223,-1.08482 c -5.73457,-1.96107 -6.32844,-4.51217 -4.15883,-17.86516 1.37799,-8.48093 1.60662,-12.13736 0.83553,-13.36287 -1.59581,-2.53624 -14.84415,-4.39103 -26.84893,-3.75888 -12.40419,0.65318 -14.31265,-0.23908 -12.05722,-5.63708 1.10495,-2.64451 2.48688,-3.86845 5.75565,-5.0976 7.18475,-2.70167 12.88028,-3.64354 22.18749,-3.66914 L 290.27185,137 289.6803,132.75 c -0.89906,-6.45936 -6.0601,-23.61792 -9.22545,-30.67126 -2.46355,-5.489514 -2.67144,-6.666569 -1.65371,-9.362859 0.64024,-1.696197 1.02871,-3.219366 0.86326,-3.384819 -0.16546,-0.165453 -2.05278,0.592373 -4.19406,1.684057 C 273.32907,92.106804 270.99727,93 270.28856,93 c -1.77683,0 -1.63365,0.61423 0.96144,4.124273 1.76818,2.39159 2.25,4.380407 2.25,9.287347 0,5.30222 -0.42354,6.79936 -2.80793,9.92545 -4.29361,5.62922 -9.70124,7.95901 -17.3439,7.47236 -5.06019,-0.3222 -7.19092,-1.01845 -10.71191,-3.50028 l -4.39527,-3.09807 -3.34187,3.54303 c -11.87718,12.59209 -34.36621,10.01161 -41.92814,-4.811 -2.71423,-5.32033 -2.69775,-15.23883 0.0328,-19.71728 C 194.10168,94.425037 195,92.749093 195,92.501511 c 0,-0.582353 -5.65309,-3.510926 -6.70034,-3.471102 -0.43981,0.01672 -0.0122,0.489085 0.95034,1.04969 2.41945,1.409199 2.22265,6.182182 -0.35093,8.511242 -5.84367,5.288449 -24.80495,38.133889 -23.36203,40.468589 0.36281,0.58704 4.22946,0.72961 9.78147,0.36065 10.17755,-0.67635 26.5359,1.337 33.49865,4.12294 2.65423,1.06201 4.82491,2.87954 6.17804,5.17291 1.14734,1.9446 1.95528,3.59142 1.79544,3.6596 -0.15985,0.0682 -1.21694,0.63645 -2.34908,1.26281 -1.36384,0.75456 -5.76057,0.96337 -13.02962,0.61884 -14.32538,-0.679 -39.64221,2.29446 -44.35972,5.21005 -0.60611,0.37459 -2.62312,3.6851 -4.48225,7.35667 -4.79986,9.4792 -8.97947,14.84516 -14.08507,18.08304 -4.50309,2.85578 -4.82484,4.08956 -1.06823,4.0963 3.33463,0.006 8.11328,3.47968 9.80602,7.1282 1.24788,2.68968 1.66661,8.80625 2.07896,30.36806 0.54877,28.69482 2.0924,44.9565 7.69039,81.01571 1.70635,10.99136 3.73218,24.03429 4.50186,28.98429 1.89444,12.18363 5.1184,20.96944 9.18814,25.03919 2.40725,2.40724 2.63099,0.75595 0.83025,-6.12745 z m 39.15438,-183.07841 c -1.49046,-1.49046 -0.53691,-6.1066 1.69445,-8.20286 1.29861,-1.21998 5.91111,-3.75854 10.25,-5.64124 6.26257,-2.71742 8.14072,-4.03259 9.11051,-6.37961 2.18331,-5.2839 3.96359,-4.88378 5.20153,1.16905 0.52416,2.56285 1.46144,3.2631 7.09042,5.29728 6.66223,2.40756 9.56188,4.88438 10.61077,9.06348 1.37656,5.48464 -3.07331,6.58224 -13.62435,3.36057 -8.20832,-2.50634 -12.21519,-2.50634 -19.5,0 -5.96776,2.05321 -9.65913,2.50753 -10.83333,1.33333 z m -3.91144,186.66256 c 3.99038,-0.5183 10.52366,-2.30301 14.5184,-3.96603 C 228.30551,352.10248 236,346.82387 236,344.9272 c 0,-1.87648 -5.40966,-0.8475 -9.8894,1.88107 -9.27188,5.64742 -16.66731,7.69587 -27.6106,7.64783 -6.52441,-0.0286 -11.88777,-0.63687 -15.4315,-1.75 -6.73828,-2.11658 -7.07207,-2.1145 -7.05319,0.0439 0.0277,3.17038 1.51485,4.21384 8.03765,5.63979 7.80371,1.70597 13.13794,1.84838 22.70227,0.6061 z M 208,348.95033 c 5.5205,-1.22773 15,-4.93419 15,-5.86495 0,-0.37529 -6.8625,-1.21931 -15.25,-1.87561 -15.97766,-1.2502 -22.02226,-2.46723 -30.1828,-6.07702 -2.74794,-1.21554 -5.30246,-1.79749 -5.78261,-1.31734 -0.47306,0.47306 -0.55187,2.78773 -0.17514,5.1437 0.6125,3.83036 1.1306,4.48071 4.89669,6.14663 10.25075,4.53439 21.96314,5.96418 31.49386,3.84459 z m -50.38028,-5.32935 c -1.4527,-5.78802 -29.9659,-13.66219 -43.5013,-12.01326 -3.81736,0.46505 -6.26182,1.4421 -8.40998,3.36148 l -3.02839,2.70587 1.90997,3.89511 c 2.74893,5.60603 6.4375,6.24551 19.63453,3.40402 5.6515,-1.21684 10.87499,-2.53496 11.60777,-2.92914 1.51455,-0.81473 8.08635,1.01922 16.16768,4.5118 5.93138,2.56342 6.87609,2.06988 5.61972,-2.93588 z M 116.74668,204.70362 c -0.44191,-6.17632 -0.25137,-7.13881 1.92536,-9.7257 1.32869,-1.57906 3.30257,-3.15247 4.3864,-3.49647 2.78188,-0.88293 1.39715,-2.48145 -2.14958,-2.48145 -4.4895,0 -9.54335,-2.48973 -13.23617,-6.52065 -3.06338,-3.34387 -3.421,-3.48754 -4.73623,-1.90279 -1.24775,1.50345 -1.19504,1.84998 0.42878,2.81881 4.95441,2.95599 6.63476,4.87411 6.63476,7.57362 0,2.99851 -3.82652,6.97348 -9.85227,10.2345 -1.949984,1.05529 -3.14773,2.48221 -3.14773,3.75 0,3.10897 2.687344,2.4722 6.13414,-1.45349 2.12506,-2.4203 3.92877,-3.5 5.84701,-3.5 3.91436,0 5.20328,1.99443 4.42685,6.84994 -0.87039,5.44315 0.0217,7.86829 2.2224,6.04184 1.28811,-1.06904 1.50947,-2.69278 1.11628,-8.18816 z M 321.75,190.88491 c -3.7929,-2.82982 -3.45315,-5.13501 1.45145,-9.84778 2.31079,-2.22042 3.71589,-4.03713 3.12244,-4.03713 -0.59345,0 -1.65808,0.69775 -2.36585,1.55056 -0.7161,0.86285 -2.43361,1.41725 -3.87244,1.25 -2.0411,-0.23727 -2.89499,-1.19557 -4.05477,-4.55056 -1.8618,-5.38583 -3.46257,-5.50556 -2.75173,-0.20582 0.43153,3.21729 0.13059,4.42787 -1.47186,5.92078 -2.00868,1.87137 -2.00592,1.88094 0.99269,3.43158 1.65384,0.85523 3.98713,3.14088 5.18509,5.07922 1.42796,2.31049 2.92491,3.51333 4.34654,3.49256 2.04196,-0.0298 2.00804,-0.15135 -0.58156,-2.08341 z m -146.25,-38.87164 14,-2.94486 -9,0.5972 c -4.95,0.32846 -10.8887,1.16187 -13.19712,1.85201 C 163.22094,152.738 162,152.57475 162,150.80858 c 0,-1.61401 4.89568,-2.71815 18.9023,-4.26311 7.70622,-0.85001 14.36825,-1.59871 14.80451,-1.66378 C 196.14306,144.81661 195.15,144.41985 193.5,144 c -1.65,-0.41985 -9.19864,-0.81661 -16.77475,-0.88169 -13.40696,-0.11515 -13.79847,-0.0582 -14.66296,2.13169 -0.48851,1.2375 -1.60841,3.9375 -2.48866,6 -2.00135,4.68929 -2.60142,4.66053 15.92637,0.76327 z m 115.05887,-3.54507 c -1.22048,-0.92313 -4.00489,-1.42654 -7.5,-1.35598 L 277.5,147.22444 283,148.5 c 3.025,0.70156 6.4,1.31175 7.5,1.35598 1.9729,0.0793 1.9737,0.0605 0.0589,-1.38778 z m 0.6657,-4.0261 c 0.30685,-0.30685 0.31377,-1.49149 0.0154,-2.63254 -0.51929,-1.98575 -0.97278,-2.045 -10.58579,-1.38291 -11.54217,0.79495 -16.34089,2.44415 -7.65416,2.63055 3.025,0.0649 7.75,0.46846 10.5,0.89679 7.08744,1.10392 7.10749,1.10518 7.72457,0.48811 z M 240.41821,93.393011 C 242.8527,92.45881 242.29295,91 239.5,91 c -1.55556,0 -2.5,0.566667 -2.5,1.5 0,1.613965 0.91589,1.853242 3.41821,0.893011 z m -26.1957,20.050289 c -5.00341,-3.50452 -1.48196,-10.4433 5.3,-10.4433 3.9254,0 5.47749,1.58255 5.47749,5.58499 0,5.35129 -6.12909,8.11417 -10.77749,4.85831 z m 4.44166,-5.01052 c 0.83346,-2.17196 -1.28244,-4.21451 -2.79695,-2.7 C 214.58718,107.01282 215.38017,110 217,110 c 0.58452,0 1.3334,-0.70525 1.66417,-1.56722 z m 29.97069,4.49464 C 247.12108,111.73668 246,109.8529 246,108.5 c 0,-2.77659 4.28471,-6.5 7.47987,-6.5 2.31305,0 4.76212,2.22427 5.86678,5.32827 0.44704,1.25615 -0.26365,2.74257 -2.27108,4.75 -3.46754,3.46755 -4.92549,3.61422 -8.44071,0.84915 z M 253,107 c 0,-1.33333 -0.66667,-2 -2,-2 -1.33333,0 -2,0.66667 -2,2 0,1.33333 0.66667,2 2,2 1.33333,0 2,-0.66667 2,-2 z"
       id="path56"
       inkscape:connector-curvature="0" />
    <path
       style="fill:#9c744f"
       d="m 174.91667,366.75 c -0.0458,-0.1375 -0.2343,-1.15 -0.4188,-2.25 -0.18451,-1.1 -1.03062,-4.475 -1.88025,-7.5 -1.95277,-6.95258 -4.69922,-25.05896 -3.97804,-26.22585 1.38692,-2.24407 2.70469,0.3558 2.77881,5.48237 0.0449,3.10434 0.5905,6.15298 1.21249,6.77474 2.1745,2.17376 14.9262,6.12721 21.5659,6.68615 7.56734,0.63703 16.97062,-0.89968 24.05322,-3.93083 7.94898,-3.40194 6.57892,-4.27978 -7.25,-4.64531 -14.79736,-0.39112 -29.54913,-3.28986 -32.5,-6.3863 -0.68907,-0.72306 -0.40954,-0.84008 0.89899,-0.37636 12.37524,4.38555 45.68068,5.25649 83.9245,2.19462 C 289.10997,334.50872 291,334.74989 291,340.10479 c 0,1.87753 -2.01759,6.87921 -5,12.39521 -2.75,5.08615 -5,9.56064 -5,9.94332 0,0.38268 0.9657,0.55198 2.146,0.37623 1.57809,-0.23499 4.37399,-4.12455 10.56519,-14.69793 4.63056,-7.90811 9.29504,-16.6004 10.36551,-19.3162 6.85423,-17.38932 6.38895,-55.49696 -1.17412,-96.16369 -2.09558,-11.268 -2.09256,-16.06975 0.004,-5.91556 9.79212,47.43198 11.40294,81.59426 4.77526,101.27383 -4.44611,13.20181 -22.14949,39.03251 -26.71864,38.98469 -0.80461,-0.008 -2.10083,-0.41908 -2.88049,-0.91258 -1.15292,-0.72975 -0.64125,-2.18208 2.74082,-7.7796 5.61868,-9.29924 7.76442,-15.70728 6.32064,-18.87603 C 286.12994,337.19107 285.48083,337 278.9346,337 c -3.90956,0 -12.77978,0.69908 -19.71161,1.55351 l -12.60333,1.55351 -7.17805,6.81845 c -8.09241,7.687 -19.80776,14.17835 -29.05214,16.09748 -4.97409,1.03261 -18.37048,0.92741 -30.88947,-0.24258 -2.58409,-0.2415 -2.96698,0.0316 -2.76179,1.96963 0.13102,1.2375 -0.20648,2.25 -0.75,2.25 -0.54352,0 -1.02571,-0.1125 -1.07154,-0.25 z m 39.95237,-8.18802 c 2.95297,-0.79407 7.73248,-2.60009 10.62114,-4.01338 C 231.03141,351.83753 240,344.56066 240,342.77572 c 0,-1.9144 -10.07493,0.005 -13.9047,2.64877 -12.42546,8.57815 -29.75005,10.76946 -44.50938,5.6298 -3.25274,-1.13271 -6.11926,-1.85429 -6.37004,-1.60351 -0.25077,0.25078 -0.15273,2.07229 0.21787,4.04779 0.49854,2.65742 1.37209,3.85731 3.35787,4.6123 7.94548,3.02087 25.69566,3.24282 36.07742,0.45111 z m -59.15653,-5.3742 c -11.78516,-5.27908 -18.22664,-6.14093 -28.47529,-3.80993 -8.72966,1.98552 -17.20334,2.08097 -21.60144,0.24333 -7.241691,-3.02577 -9.864699,-10.92409 -5.27318,-15.87843 8.67119,-9.35637 29.73405,-9.86625 49.34248,-1.19447 6.5994,2.91856 9.29492,3.12159 9.29492,0.7001 0,-0.96339 -1.0936,-7.15089 -2.43021,-13.75 -6.55347,-32.35562 -10.56699,-70.07933 -10.57638,-99.40899 -0.006,-18.66759 -0.18703,-20.86311 -1.93975,-23.52196 -2.474,-3.753 -5.64895,-5.49308 -10.05366,-5.51003 -4.55587,-0.0175 -11.11477,3.00176 -13.72252,6.31697 C 117.9621,200.3179 117,200.67442 117,198.58889 c 0,-2.23344 5.47493,-6.25375 11.02846,-8.09834 8.27345,-2.748 15.33059,-0.56447 18.59821,5.75441 1.40219,2.71153 1.70716,7.13633 1.91197,27.74058 0.25244,25.39652 1.91119,44.1432 7.03563,79.51446 4.68224,32.31898 6.99559,44.73311 9.09699,48.81713 2.7421,5.32921 1.30619,5.46876 -8.95875,0.87065 z m 3.07201,-8.74033 c -0.99702,-3.04327 -2.19369,-4.36671 -5.28663,-5.84666 -13.73256,-6.57093 -32.7671,-9.92677 -42.40218,-7.47563 -8.7771,2.23288 -11.280887,7.71974 -6.31893,13.8475 2.67387,3.3021 9.17773,3.68695 19.25257,1.13924 11.81194,-2.98699 17.77123,-2.71425 27.47065,1.25728 5.10026,2.08835 8.10389,2.86542 8.28662,2.14382 0.15765,-0.62251 -0.2933,-2.90201 -1.0021,-5.06555 z M 300.07895,217.41667 c 0.048,-1.16495 0.28494,-1.4019 0.60416,-0.60417 0.28887,0.72187 0.25335,1.58437 -0.0789,1.91667 -0.33229,0.33229 -0.56864,-0.25834 -0.52522,-1.3125 z m -186.39145,-1.0625 c -1.21213,-1.21214 -0.74155,-1.92449 1.37673,-2.08406 1.14151,-0.086 1.89583,0.34971 1.6875,0.9747 -0.47072,1.41215 -2.15256,2.02103 -3.06423,1.10936 z M 111.10209,206.25 c -0.12965,-5.39732 -1.67584,-5.50252 -7.34921,-0.5 -4.019875,3.54455 -3.759737,2.50229 0.62398,-2.5 2.30419,-2.62932 7.37728,-3.05426 8.28307,-0.69382 0.32844,0.8559 0.13526,2.9934 -0.42929,4.75 L 111.20418,210.5 Z m -16.122305,0.71223 c -1.77256,-3.31206 -0.280133,-5.55052 6.560085,-9.83932 3.55307,-2.22777 6.46013,-4.69495 6.46013,-5.48263 0,-0.78768 -2.1375,-3.24913 -4.75,-5.46988 -3.965878,-3.3712 -4.573128,-4.32775 -3.678557,-5.79455 1.589847,-2.60682 3.930077,-3.18147 2.564407,-0.62969 -1.22463,2.28825 -0.2062,3.92126 4.11415,6.59686 5.39864,3.3434 2.07596,10.90438 -6.0344,13.73167 -3.611526,1.25898 -5.225091,5.00402 -3.204823,7.4383 0.814044,0.98086 0.864029,1.48701 0.146851,1.48701 -0.597993,0 -1.578023,-0.917 -2.177843,-2.03777 z M 317.87244,192.25 c -1.24387,-1.58606 -1.2085,-1.62143 0.37756,-0.37756 0.9625,0.75485 1.75,1.54235 1.75,1.75 0,0.82304 -0.82119,0.29331 -2.12756,-1.37244 z m 2.67533,-3.5 c -0.41896,-0.9625 -0.41896,-2.5375 0,-3.5 0.72547,-1.66667 0.78168,-1.66667 1.18031,0 0.23021,0.9625 0.23021,2.5375 0,3.5 -0.39863,1.66667 -0.45484,1.66667 -1.18031,0 z m -7.40855,-1.78327 C 311.84078,185.88503 311.20854,185 311.73423,185 c 0.52569,0 1.77028,0.9 2.76577,2 2.28688,2.52697 1.69506,2.5125 -1.36078,-0.0333 z m -204.6213,-4.94837 c -2.13838,-2.18991 -3.60463,-4.26498 -3.25833,-4.61129 0.67534,-0.67533 5.32617,3.95496 6.87329,6.84293 1.39808,2.60978 0.67924,2.16601 -3.61496,-2.23164 z m 31.18713,-1.24304 c 3.11815,-3.33111 6.69201,-8.71086 8.91376,-13.41793 2.03979,-4.32156 4.83049,-10.07276 6.20155,-12.78044 1.37106,-2.70767 2.98972,-6.53267 3.59703,-8.5 2.29514,-7.43487 15.94751,-32.1269 22.62904,-40.92746 C 184.8709,100.11211 188,95.407727 188,94.695308 188,92.598118 185.79741,91 182.90699,91 c -3.68612,0 -4.46282,-2.589703 -1.3821,-4.608265 2.83763,-1.85929 6.39901,-1.515424 14.25183,1.376074 4.41364,1.625151 5.03485,2.143683 3.79799,3.170189 -1.5941,1.322988 -4.75665,0.70492 -8.04722,-1.572698 C 189.40357,87.895192 185,87.500853 185,88.780762 c 0,0.42942 1.35,1.290331 3,1.913136 3.91684,1.478442 3.78385,3.186128 -0.65894,8.461488 C 178.0846,110.14649 163.28828,136.98171 164.59989,140.39972 164.94573,141.30097 164.70639,142 164.05196,142 162.60943,142 158,152.21062 158,155.40607 c 0,1.29197 -0.66101,2.89763 -1.46892,3.56814 -0.80791,0.6705 -3.15253,4.58014 -5.21026,8.68809 -4.30649,8.59722 -8.66128,14.01873 -13.45885,16.75563 -3.07125,1.75209 -2.91188,1.4371 1.84308,-3.64261 z m 152.82717,3.26028 c -1.47269,-1.6273 -1.66985,-3.04301 -1.14895,-8.25 1.36782,-13.67302 1.6814,-21.33788 0.91744,-22.42467 -1.15538,-1.64362 -21.00829,-3.54904 -28.73254,-2.75767 C 258.93056,151.0784 257,150.94167 257,150.13809 257,149.51214 256.325,149 255.5,149 c -1.84682,0 -1.84684,0.003 0.0317,-3.76318 2.23302,-4.47618 8.40169,-6.36542 22.79803,-6.9822 7.64777,-0.32765 11.9876,-0.9181 12.27622,-1.67023 0.68199,-1.77724 -5.02233,-23.37433 -8.09361,-30.64316 -3.69689,-8.749464 -4.07492,-11.433742 -2.04625,-14.529877 2.42421,-3.69981 1.20463,-4.100984 -4.22319,-1.389204 -3.47128,1.734278 -6.21757,2.326197 -10.24294,2.207703 -11.56565,-0.340455 -21.64334,-1.030494 -25.26096,-1.729669 -2.36837,-0.457732 -4.26441,-0.309054 -5.12062,0.401533 -1.03765,0.861173 -1.92315,0.671169 -3.73903,-0.802292 L 229.5,88.168722 l 2.74627,-0.691833 c 1.51045,-0.380509 8.93545,-0.09663 16.5,0.630851 18.74192,1.802395 22.46788,1.526682 28.9717,-2.143844 2.95207,-1.666044 5.79819,-2.762927 6.32471,-2.437517 1.391,0.859686 1.11726,3.678065 -0.57448,5.914751 -1.83584,2.427197 -1.87395,5.855016 -0.10404,9.35853 3.42793,6.78554 9.48471,28.14022 11.69752,41.24251 1.49228,8.83596 1.21917,23.0853 -0.57519,30.00995 -1.97877,7.63636 -1.87469,10.28659 0.48799,12.42478 1.92805,1.74486 6.7682,1.71028 11.4381,-0.0817 0.87308,-0.33503 1.58742,-0.15502 1.58742,0.40002 0,1.41358 -5.58595,3.20481 -9.99424,3.20481 -2.40346,0 -4.31742,-0.6869 -5.47354,-1.9644 z M 292.09774,149 c -0.22124,-0.825 -0.37346,-2.4 -0.33828,-3.5 0.17726,-5.54144 -0.5905,-6.5 -5.20615,-6.5 -6.55235,0 -19.54126,1.97592 -23.01184,3.50065 -2.83163,1.24402 -2.38605,1.34728 6.45853,1.49672 10.83374,0.18306 10.76281,0.54753 -0.36773,1.8895 -4.32725,0.52172 -8.24155,1.32311 -8.69845,1.78086 -0.4569,0.45775 3.98358,0.90216 9.86773,0.98757 5.88415,0.0854 12.04845,0.61885 13.69845,1.18542 4.24124,1.45632 8.09926,1.02942 7.59774,-0.84072 z M 327.25,179.38723 c 2.2012,-2.57189 2.29448,-4.81014 0.16644,-3.99354 -1.00418,0.38534 -1.43286,0.15008 -1.17167,-0.64301 0.22654,-0.68787 1.42247,-1.39885 2.65763,-1.57994 1.91793,-0.28119 2.19844,0.0672 1.92167,2.38657 -0.18708,1.56784 -1.38083,3.38345 -2.82407,4.29523 -2.47061,1.56083 -2.47943,1.55536 -0.75,-0.46531 z M 311,178.55902 C 311,177.70156 311.45,177 312,177 c 0.55,0 1,0.42344 1,0.94098 0,0.51754 -0.45,1.2191 -1,1.55902 -0.55,0.33992 -1,-0.0835 -1,-0.94098 z M 211.2,171.8 c -3.37533,-3.37533 1.54616,-8.73008 11.92327,-12.97291 6.94011,-2.83756 8.24001,-3.76078 9.48262,-6.73476 1.59904,-3.82704 3.04806,-3.2962 3.56716,1.30681 0.36986,3.27967 1.4853,4.09587 7.73497,5.6599 5.61616,1.40549 10.09198,5.75034 10.09198,9.79665 0,4.16077 -2.46142,4.6806 -10.70929,2.2617 -11.65354,-3.4177 -13.12472,-3.46466 -21.79645,-0.69562 -9.34998,2.9856 -8.76518,2.90731 -10.29426,1.37823 z M 312.5,169 c 0.33992,-0.55 1.04148,-1 1.55902,-1 0.51754,0 0.94098,0.45 0.94098,1 0,0.55 -0.70156,1 -1.55902,1 -0.85746,0 -1.2809,-0.45 -0.94098,-1 z m -138,-15.62993 c 2.75,-0.81473 11.28513,-1.74775 18.96696,-2.07337 15.85574,-0.6721 15.65207,-2.01654 -0.46696,-3.08232 -8.5076,-0.56251 -9.02992,-0.70335 -5,-1.34815 2.475,-0.39602 8.1,-0.52074 12.5,-0.27717 7.86489,0.43539 7.93674,0.41817 4.2542,-1.01929 -4.85347,-1.89454 -16.86675,-3.54702 -26.57656,-3.65572 -6.43963,-0.0721 -7.19389,-0.24296 -4.67764,-1.05965 3.36006,-1.09055 20.10897,-0.37395 27.30836,1.16838 5.85544,1.25442 12.28858,4.01135 11.6754,5.0035 -0.25396,0.41091 0.20831,1.30319 1.02725,1.98286 C 215.58497,150.73037 215.36804,152 213,152 c -1.1,0 -2,0.34645 -2,0.76989 0,0.42344 -5.9625,0.76094 -13.25,0.75 -7.2875,-0.0109 -16.625,0.28418 -20.75,0.65582 l -7.5,0.6757 z M 165.5,150 c 1.1,-0.47269 2.675,-0.85943 3.5,-0.85943 0.94548,0 0.76064,0.31771 -0.5,0.85943 -1.1,0.47269 -2.675,0.85943 -3.5,0.85943 -0.94548,0 -0.76064,-0.31771 0.5,-0.85943 z m 67.75305,-29.5366 c 0.91887,-1.12013 2.3959,-3.77231 3.28229,-5.89374 l 1.61162,-3.85714 1.7857,2.93636 c 0.98214,1.615 3.2336,4.15468 5.00325,5.64374 4.28603,3.60646 2.41045,3.46531 -2.64841,-0.19931 l -4.01257,-2.9067 -3.34628,3.1567 c -1.84045,1.73618 -2.59447,2.24022 -1.6756,1.12009 z m 33.94044,-3.19727 c 2.04647,-2.29763 3.93288,-5.62267 4.23031,-7.45647 0.29525,-1.82031 0.70939,-4.43466 0.92033,-5.80966 0.21093,-1.375 0.44479,-0.54301 0.51969,1.84887 0.17129,5.47021 -2.19839,10.55268 -6.23711,13.37729 -3.09162,2.16223 -3.08526,2.14023 0.56678,-1.96003 z m -73.23933,-1.35178 c -0.61391,-1.1471 -0.92784,-2.274 -0.69762,-2.50422 0.23022,-0.23022 0.93203,0.70832 1.55958,2.08564 1.37807,3.02454 0.70709,3.35038 -0.86196,0.41858 z m 20.26835,-2.47105 c -5.00341,-3.50452 -1.48196,-10.4433 5.3,-10.4433 3.9254,0 5.47749,1.58255 5.47749,5.58499 0,5.35129 -6.12909,8.11417 -10.77749,4.85831 z m 4.44166,-5.01052 c 0.83346,-2.17196 -1.28244,-4.21451 -2.79695,-2.7 C 214.58718,107.01282 215.38017,110 217,110 c 0.58452,0 1.3334,-0.70525 1.66417,-1.56722 z m 29.97069,4.49464 C 247.12108,111.73668 246,109.8529 246,108.5 c 0,-2.77659 4.28471,-6.5 7.47987,-6.5 2.31305,0 4.76212,2.22427 5.86678,5.32827 0.44704,1.25615 -0.26365,2.74257 -2.27108,4.75 -3.46754,3.46755 -4.92549,3.61422 -8.44071,0.84915 z M 253,107 c 0,-1.33333 -0.66667,-2 -2,-2 -1.33333,0 -2,0.66667 -2,2 0,1.33333 0.66667,2 2,2 1.33333,0 2,-0.66667 2,-2 z m -60.92105,3.41667 c 0.048,-1.16495 0.28494,-1.4019 0.60416,-0.60417 0.28887,0.72187 0.25335,1.58437 -0.0789,1.91667 -0.3323,0.33229 -0.56864,-0.25834 -0.52522,-1.3125 z M 237,97.797619 c 0,-1.65576 0.5686,-2.369048 1.88851,-2.369048 1.46344,0 1.72329,0.446601 1.15449,1.984216 -1.07549,2.907343 -3.043,3.156163 -3.043,0.384832 z"
       id="path54"
       inkscape:connector-curvature="0" />
    <path
       style="fill:#9c6739"
       d="m 278,364.55902 c 0,-2.23967 1.79697,-2.81464 3.99188,-1.27726 C 284.31412,364.90832 283.64803,366 280.33333,366 278.9684,366 278,365.40195 278,364.55902 Z m -92.5,-1.48996 c -1.65,-0.45784 -4.89516,-0.88567 -7.21146,-0.95075 -4.62219,-0.12985 -4.4243,0.20235 -7.21893,-12.11831 -1.07676,-4.74706 -1.32553,-11.56419 -0.32843,-9 0.9858,2.53515 3.4339,3.88264 12.01282,6.61211 7.14318,2.27268 9.49832,2.565 17.5,2.1721 10.33723,-0.50757 23.01662,-4.23538 23.53343,-6.91895 0.25206,-1.30883 -1.57101,-1.65491 -11.49393,-2.18196 -11.26475,-0.59832 -24.83871,-2.47142 -23.99852,-3.31161 0.21818,-0.21819 5.07857,0.1198 10.80086,0.75107 6.29234,0.69416 18.50595,0.94524 30.90416,0.63532 11.275,-0.28184 19.6,-0.30058 18.5,-0.0416 -1.1,0.25894 -3.8,2.11618 -6,4.12718 -2.2,2.01101 -3.4375,3.00388 -2.75,2.20638 2.15795,-2.50323 1.40981,-3.05 -4.17327,-3.05 -4.28305,0 -6.02998,0.5105 -8.30891,2.4281 -6.1577,5.18136 -19.55709,9.58702 -29.06704,9.55712 -5.61654,-0.0177 -16.10809,-2.36881 -20.34329,-4.55892 -1.67384,-0.86557 -3.1897,-1.42743 -3.36856,-1.24856 -0.17887,0.17886 0.15543,2.42561 0.74288,4.99278 0.99522,4.34913 1.34781,4.73778 5.16814,5.69676 13.71741,3.44333 33.11962,1.87647 44.52029,-3.59532 3.34387,-1.6049 6.07976,-2.77829 6.07976,-2.60753 0,0.92408 -8.86715,5.68151 -14.7345,7.9054 -5.2734,1.99877 -9.08122,2.64894 -17.2655,2.94799 -5.775,0.21102 -11.85,0.009 -13.5,-0.44876 z m 108.1265,-14.28538 c 3.60748,-6.16898 7.67102,-13.41069 9.03009,-16.0927 3.83759,-7.57312 6.29697,-20.55982 6.32177,-33.38196 0.0139,-7.20461 0.42333,-11.43924 1.14931,-11.88792 1.74419,-1.07797 0.52782,27.48299 -1.54208,36.20895 -1.05503,4.44764 -3.64655,10.54545 -6.88846,16.20846 -5.60235,9.78625 -12.75451,20.14747 -13.9134,20.15614 -0.39395,0.003 2.2353,-5.04199 5.84277,-11.21097 z M 155,352.45125 c -11.44208,-5.14252 -16.57005,-5.94121 -25.27128,-3.93606 -9.14802,2.1081 -20.11722,2.18498 -24.92849,0.1747 -4.41647,-1.84532 -7.206985,-6.56146 -6.306974,-10.65919 0.732806,-3.33644 2.437354,-4.97235 8.506744,-8.16419 4.03354,-2.1212 5.74389,-2.3599 16.5,-2.30273 10.4197,0.0554 12.92184,0.40998 19,2.69256 3.85,1.44582 9.44641,3.51388 12.43647,4.59567 l 5.43646,1.96691 1.80115,7.63314 c 0.99064,4.19823 2.27256,8.51398 2.84872,9.59054 1.53096,2.86062 -1.01744,2.45601 -10.0228,-1.59135 z m 5,-2.50843 c 0,-0.58145 -0.49079,-3.00628 -1.09064,-5.3885 -1.02211,-4.05919 -1.47763,-4.49419 -7.25,-6.92342 -10.26044,-4.31799 -13.90278,-5.35872 -23.51649,-6.7194 -11.41221,-1.61522 -21.59518,-0.29965 -24.39287,3.15139 -2.67659,3.30166 -2.21614,7.62482 1.17308,11.01403 2.43811,2.43812 3.73883,2.92308 7.84003,2.92308 2.70433,0 8.43593,-0.9 12.73689,-2 4.30096,-1.1 9.70249,-2 12.00341,-2 4.27469,0 12.97694,2.57551 18.12472,5.36417 3.4372,1.86201 4.37187,1.98572 4.37187,0.57865 z m 128.03544,-6.228 c -0.0195,-2.08185 -0.76219,-4.89435 -1.65045,-6.25 C 284.94937,335.27379 284.94144,335 286.31356,335 c 4.13999,0 5.84469,5.34987 3.18644,10 -1.42901,2.49979 -1.42913,2.49968 -1.46456,-1.28518 z M 169.05644,334.25 c -0.031,-2.3375 0.367,-4.25 0.88454,-4.25 1.61932,0 1.73885,1.37862 0.4335,5 l -1.2616,3.5 -0.0564,-4.25 z M 309.15789,284 c 0,-1.375 0.22698,-1.9375 0.50439,-1.25 0.27741,0.6875 0.27741,1.8125 0,2.5 -0.27741,0.6875 -0.50439,0.125 -0.50439,-1.25 z m -158.07894,-4.58333 c 0.048,-1.16495 0.28494,-1.4019 0.60416,-0.60417 0.28887,0.72187 0.25335,1.58438 -0.0789,1.91667 -0.3323,0.33229 -0.56864,-0.25834 -0.52522,-1.3125 z M 309.232,278 c 0,-1.925 0.2058,-2.7125 0.45733,-1.75 0.25152,0.9625 0.25152,2.5375 0,3.5 -0.25153,0.9625 -0.45733,0.175 -0.45733,-1.75 z m -158.97982,-6.5 c 0.0111,-2.2 0.21589,-2.98225 0.45508,-1.73834 0.23919,1.24391 0.23011,3.04391 -0.0202,4 -0.25029,0.95609 -0.446,-0.0617 -0.4349,-2.26166 z m -0.96617,-9 c 0.008,-2.75 0.20172,-3.75631 0.43157,-2.23625 0.22986,1.52006 0.22371,3.77006 -0.0136,5 -0.23736,1.22994 -0.42542,-0.0138 -0.41792,-2.76375 z M 148.32007,251 c 0,-3.575 0.1815,-5.0375 0.40333,-3.25 0.22182,1.7875 0.22182,4.7125 0,6.5 -0.22183,1.7875 -0.40333,0.325 -0.40333,-3.25 z m -0.93471,-19 c 0,-6.875 0.15977,-9.6875 0.35504,-6.25 0.19527,3.4375 0.19527,9.0625 0,12.5 -0.19527,3.4375 -0.35504,0.625 -0.35504,-6.25 z m -0.0201,-22.5 c 0.003,-5.5 0.17053,-7.62242 0.37317,-4.71648 0.20265,2.90594 0.20052,7.40594 -0.005,10 -0.20525,2.59406 -0.37104,0.21648 -0.36844,-5.28352 z m -45.50445,-11.45054 c 1.29844,-1.1272 2.76094,-2.04946 3.25,-2.04946 1.74819,0 0.83727,0.97382 -2.36078,2.52378 l -3.25,1.57515 z m 43.73677,-0.77337 c -0.39367,-1.22316 -1.87485,-3.13566 -3.29152,-4.25 C 140.88937,191.91174 140.15678,191 140.67805,191 c 1.65139,0 6.5617,5.78205 6.08872,7.16965 -0.28656,0.84071 -0.7169,0.51182 -1.16922,-0.89356 z M 293,184 c -2.20045,-2.20045 -2.62814,-7.32301 -1.06614,-12.76938 1.27563,-4.44788 1.34966,-18.96008 0.12105,-23.73062 -0.14165,-0.55 -0.18139,-2.41705 -0.0883,-4.14901 0.0931,-1.73195 -0.25098,-3.40871 -0.76457,-3.72613 -0.5136,-0.31742 -0.73588,-1.61253 -0.49397,-2.87803 0.7695,-4.02537 -4.77692,-23.79324 -10.75997,-38.349366 -0.7045,-1.71397 -0.94292,-3.951761 -0.53272,-5 0.82315,-2.103508 0.57539,-2.615354 6.58428,13.602536 4.62294,12.47724 9.02112,31.96281 9.68584,42.91189 0.47849,7.88151 0.20231,11.05182 -1.55169,17.81161 -2.71185,10.45126 -2.68127,11.47241 0.45509,15.19977 2.85653,3.39479 1.58848,4.2541 -1.58889,1.07673 z m -193,-2.44098 c 0,-0.79254 0.40803,-1.69316 0.90674,-2.00138 0.49871,-0.30822 0.67122,0.34022 0.38337,1.44098 C 100.6795,183.33361 100,183.62877 100,181.55902 Z M 145.46284,175.25 c 1.54161,-2.3375 2.99357,-4.25 3.22658,-4.25 0.7213,0 -3.10762,6.08619 -4.60946,7.32688 -0.78103,0.64522 -0.15873,-0.73938 1.38288,-3.07688 z m 65.73202,-3.92244 c -2.2307,-4.25314 2.82158,-9.01877 13.80514,-13.02186 4.4335,-1.61584 5.85589,-2.71363 7.33535,-5.66139 2.0541,-4.09267 3.66465,-3.96423 3.66465,0.29226 0,3.52579 1.28868,4.60372 7.31916,6.12221 8.06961,2.03195 13.37745,9.45834 9.22391,12.90548 -1.15834,0.96133 -3.25906,0.67896 -10.25,-1.37778 -4.83619,-1.42282 -9.98317,-2.58683 -11.43773,-2.58671 -2.19334,1.9e-4 -12.34728,2.71683 -17.39613,4.65426 -0.7182,0.2756 -1.73716,-0.32131 -2.26435,-1.32647 z m -60.70828,-4.94968 c 0.83238,-1.99217 1.5296,-4.35467 1.54938,-5.25 0.0198,-0.89534 1.08122,-2.90555 2.35876,-4.46716 2.03058,-2.4821 2.40679,-2.62036 2.99057,-1.09905 0.4241,1.10517 -0.0534,2.41211 -1.30847,3.58138 -1.08693,1.01264 -2.87357,3.86972 -3.9703,6.34906 -2.36351,5.3431 -3.81364,6.13602 -1.61994,0.88577 z m 22.95843,-12.2889 c 1.00108,-1.61979 17.77118,-3.37079 26.43069,-2.75968 13.90901,0.98158 11.07372,2.1707 -5.1757,2.1707 -8.36,0 -16.68487,0.33072 -18.49971,0.73494 -1.85347,0.41282 -3.06109,0.34885 -2.75528,-0.14596 z M 157.03063,152.5 c 0,-0.55 0.43621,-1.675 0.96937,-2.5 0.53316,-0.825 0.96937,-1.05 0.96937,-0.5 0,0.55 -0.43621,1.675 -0.96937,2.5 -0.53316,0.825 -0.96937,1.05 -0.96937,0.5 z m 52.3341,-2.03763 c -1.72439,-0.75596 -7.12439,-1.78363 -12,-2.28372 L 188.5,147.2694 l 6.67371,-0.1347 c 7.58068,-0.15301 16.61815,1.54377 18.79058,3.52792 1.28571,1.17428 1.28571,1.32743 0,1.25581 -0.80536,-0.0449 -2.87516,-0.70009 -4.59956,-1.45606 z M 280,150.80854 c -4.125,-0.5126 -10.85454,-0.67718 -14.95454,-0.36573 -5.72399,0.43481 -7.18084,0.29257 -6.27559,-0.61268 1.70179,-1.70179 21.56221,-1.32896 27.23013,0.51117 5.18857,1.68451 4.33232,1.75119 -6,0.46724 z m -25.05715,-3.23968 c 1.58277,-1.90712 9.8064,-3.59479 16.85637,-3.4593 5.61499,0.10792 5.57225,0.12828 -2.84017,1.35294 -4.69753,0.68386 -9.50544,1.75955 -10.68426,2.39044 -3.12865,1.6744 -4.83649,1.52879 -3.33194,-0.28408 z m -48.42143,-2.17154 c -7.07021,-1.92351 -18.39584,-3.37829 -27.34378,-3.51232 -6.75691,-0.10121 -7.19795,-0.21389 -3.67764,-0.93964 7.91999,-1.63278 34.15413,2.06795 36.01606,5.08062 0.33109,0.53571 0.46292,0.91817 0.29296,0.84991 -0.16996,-0.0683 -2.54938,-0.73362 -5.2876,-1.47857 z M 160,143.83486 C 160,141.44623 161.61906,139 163.2,139 c 1.39891,0 0.86549,2.10128 -1.2,4.72713 l -2,2.54259 z m 100.6057,-2.32117 c 3.98991,-1.96539 7.1587,-2.62136 14.5,-3.00165 l 9.3943,-0.48663 -8.7296,1.44326 c -4.80127,0.79379 -10.56692,1.93799 -12.81254,2.54268 -2.24562,0.60468 -4.84231,1.30596 -5.77041,1.55839 -0.9281,0.25243 0.61011,-0.67279 3.41825,-2.05605 z m -23.13674,-26.56391 c -0.95021,-1.53748 0.35135,-2.52947 1.63484,-1.24598 0.71818,0.71818 0.73543,1.27752 0.0524,1.69964 -0.55992,0.34605 -1.31919,0.1419 -1.68727,-0.45366 z m -22.2407,-1.17997 c -3.09645,-1.4923 -3.99313,-5.46353 -1.71704,-7.60445 0.97378,-0.91595 1.48066,-1.14347 1.1264,-0.5056 -1.02877,1.85236 0.40469,4.34024 2.50075,4.34024 2.61361,0 3.61937,-2.97276 1.52411,-4.50485 C 216.36146,103.8126 216.58374,103 219.34501,103 c 1.28976,0 3.12592,0.86289 4.08036,1.91753 2.02946,2.24253 1.749,6.58247 -0.42537,6.58247 -0.825,0 -1.823,0.7875 -2.21778,1.75 -0.81052,1.97614 -2.25216,2.11106 -5.55396,0.51981 z m 32.21186,-2.22085 C 245.84714,109.11777 246.22181,105 248.036,105 c 0.49568,0 0.65545,0.64049 0.35506,1.42331 -0.84189,2.19392 3.08248,3.91596 4.64195,2.03692 1.0061,-1.21228 0.92259,-1.85181 -0.43817,-3.35543 -1.38551,-1.53098 -1.43498,-1.95217 -0.28128,-2.39488 0.76995,-0.29546 2.47688,-2.7e-4 3.79317,0.65597 3.03944,1.51533 3.57954,8.22826 0.64327,7.99522 -0.9625,-0.0764 -1.75,0.48611 -1.75,1.25 0,2.49623 -5.75844,1.68718 -7.55988,-1.06215 z M 188.63278,94.48543 c -1.13991,-2.970574 -0.66496,-3.946182 1.07436,-2.206859 1.21687,1.216867 1.3986,2.01569 0.63279,2.781504 -0.76582,0.765813 -1.25609,0.600781 -1.70715,-0.574645 z M 260.5,91.93117 c -1.65,-0.505607 -8.625,-1.170222 -15.5,-1.476921 -6.875,-0.3067 -12.9275,-0.984374 -13.45,-1.505942 -1.35007,-1.347669 13.72336,-1.21725 26.206,0.226741 9.03438,1.045095 10.8975,0.984198 15.64161,-0.51125 2.96208,-0.933715 5.93948,-2.365043 6.61644,-3.18073 1.76846,-2.130855 5.22648,-1.93738 4.77096,0.266932 -0.21004,1.016374 -1.16456,1.677549 -2.27694,1.577175 -1.05342,-0.09505 -3.73618,0.86884 -5.96169,2.141987 -4.70673,2.692579 -11.76155,3.775005 -16.04638,2.462008 z M 191.94461,89.382881 C 186.38299,86.806144 184,86.853853 184,89.541939 c 0,0.990016 -0.67035,1.475612 -1.75,1.26769 -0.9662,-0.186072 -1.75,-1.22666 -1.75,-2.323324 0,-1.751973 0.64886,-1.975601 5.5,-1.895575 7.1901,0.11861 16.04811,3.409359 12.66836,4.706291 -0.77984,0.299253 -3.80553,-0.562109 -6.72375,-1.91414 z"
       id="path52"
       inkscape:connector-curvature="0" />
    <path
       style="fill:#5f463a"
       d="m 278,364.66667 c 0,-2.15445 1.08382,-2.63127 3.10781,-1.36727 2.60893,1.62931 2.36782,2.7006 -0.60781,2.7006 -1.41667,0 -2.5,-0.57778 -2.5,-1.33333 z m -95.5,-1.84339 c -8.16318,-1.39306 -8.5,-1.52775 -8.5,-3.39888 0,-1.15777 0.51335,-1.43503 1.75,-0.94517 6.06124,2.40096 16.45429,3.67964 25.75,3.16806 5.5,-0.30268 11.125,-0.80188 12.5,-1.10932 1.73543,-0.38804 1.44869,-0.0727 -0.93758,1.03092 -4.2706,1.97521 -22.06001,2.70535 -30.56242,1.25439 z m 110.96793,-12.398 C 307.00041,326.04643 308.56846,321.63226 309.95958,304 l 0.74951,-9.5 0.14545,7.61901 c 0.18442,9.65948 -2.27006,23.90663 -5.23397,30.38099 -2.82579,6.17262 -13.28164,23.1725 -14.84763,24.14033 -0.63204,0.39062 0.5807,-2.40615 2.69499,-6.21505 z M 155,352.45125 c -11.44208,-5.14252 -16.57005,-5.94121 -25.27128,-3.93606 -9.14802,2.1081 -20.11722,2.18498 -24.92849,0.1747 -6.389566,-2.66973 -8.610761,-10.97602 -3.99355,-14.93409 3.4533,-2.96033 4.39849,-2.95232 2.20196,0.0186 -2.99268,4.04783 -2.15727,9.08126 2.10209,12.66528 3.79702,3.19498 9.25071,3.34861 19.88927,0.56028 10.94488,-2.86861 16.00312,-2.57679 26,1.5 4.675,1.9065 9.1975,3.47393 10.05,3.48318 1.65181,0.0179 3.95,1.88953 3.95,3.21682 0,1.359 -2.21486,0.75019 -10,-2.74875 z m 30.5,-1.60586 c -3.85,-1.12162 -8.48216,-2.10818 -10.29369,-2.19235 -2.53542,-0.11781 -3.4264,-0.68176 -3.8701,-2.44961 -0.78075,-3.11076 0.0402,-3.65202 2.82703,-1.86383 1.28522,0.82468 5.62759,2.48807 9.64972,3.69643 5.96302,1.79146 9.00886,2.11369 16.5,1.7456 10.53658,-0.51772 22.95806,-4.23484 23.49661,-7.03133 0.27716,-1.43917 -0.89917,-1.71681 -8.49393,-2.00477 -6.83097,-0.25901 -5.75313,-0.38055 4.78767,-0.53989 7.48182,-0.1131 16.48182,-0.49755 20,-0.85433 l 6.39669,-0.6487 -1.92637,2.17233 c -1.31389,1.48164 -2.25183,1.84686 -2.95,1.14869 -2.50381,-2.50381 -9.46092,-1.06199 -19.32962,4.00597 -14.3225,7.35514 -23.81359,8.59739 -36.79401,4.81579 z M 288,342.25902 c 0,-1.57246 -0.5325,-3.39152 -1.18333,-4.04235 -1.47416,-1.47416 -0.42974,-2.66591 1.6402,-1.87159 1.74586,0.66995 2.17711,7.14506 0.54313,8.15492 -0.5776,0.35698 -1,-0.58962 -1,-2.24098 z m -137,-5.84117 c -10.54948,-4.74022 -20.61887,-6.86426 -32.67897,-6.89332 -7.24785,-0.0175 -9.69549,-0.31249 -8.5,-1.02453 0.92343,-0.55 7.07897,-0.9713 13.67897,-0.93622 10.60997,0.0564 12.86877,0.38891 19.5,2.87056 4.125,1.54373 9.63148,3.54002 12.23662,4.43622 3.21041,1.10441 4.74094,2.19332 4.75,3.37944 0.0169,2.20988 0.002,2.20694 -8.98662,-1.83215 z m 48.76166,2.87489 c 1.24391,-0.23919 3.04391,-0.23011 4,0.0202 0.95609,0.25029 -0.0617,0.446 -2.26166,0.4349 -2.2,-0.0111 -2.98225,-0.21589 -1.73834,-0.45508 z M 293.55353,183.6628 c -1.0058,-0.73546 -1.65431,-1.81881 -1.44113,-2.40744 0.21318,-0.58864 1.19611,0.0131 2.18428,1.3372 2.04314,2.73766 1.87276,2.98304 -0.74315,1.07024 z m -81.88686,-12.32947 c -2.96789,-2.96789 2.17603,-7.91787 12.39407,-11.92678 4.84812,-1.90209 7.50543,-3.55505 8.21353,-5.10917 1.37931,-3.02724 2.06042,-2.89834 3.39708,0.64288 0.91666,2.42851 2.11469,3.23238 6.88336,4.61867 6.61055,1.92174 10.44529,5.19907 10.44529,8.927 0,3.65366 -2.01962,4.0034 -9.73605,1.68599 -11.70219,-3.5144 -13.23248,-3.56764 -21.6196,-0.75218 -8.31711,2.79196 -8.97344,2.91784 -9.97768,1.91359 z M 294.01655,161 c -0.24252,-8.55132 -0.84015,-15.68454 -1.6756,-20 -0.37267,-1.925 -0.58891,-3.87629 -0.48054,-4.33619 0.41494,-1.76085 -5.95465,-25.07867 -8.46144,-30.97568 -1.4468,-3.40347 -2.833,-7.76313 -3.08046,-9.68813 -0.43173,-3.358516 -0.35282,-3.29788 1.9521,1.5 8.88758,18.50021 15.85355,54.09351 12.91687,66 -0.97776,3.96425 -0.98823,3.94191 -1.17093,-2.5 z m -141.99431,0.15773 c -0.0122,-0.73825 0.87776,-2.48644 1.97776,-3.88486 1.1258,-1.43122 1.99028,-1.93726 1.97776,-1.15773 -0.0292,1.82143 -3.92658,6.78984 -3.95552,5.04259 z M 160,142.74489 c 0,-0.825 0.675,-2.0602 1.5,-2.74489 1.21995,-1.01247 1.5,-0.96484 1.5,0.25511 0,0.825 -0.675,2.0602 -1.5,2.74489 -1.21995,1.01247 -1.5,0.96484 -1.5,-0.25511 z m 55.22826,-28.97508 c -3.09645,-1.4923 -3.99313,-5.46353 -1.71704,-7.60445 0.97378,-0.91595 1.48066,-1.14347 1.1264,-0.5056 -1.02877,1.85236 0.40469,4.34024 2.50075,4.34024 2.61361,0 3.61937,-2.97276 1.52411,-4.50485 C 216.36146,103.8126 216.58374,103 219.34501,103 c 1.28976,0 3.12592,0.86289 4.08036,1.91753 2.02946,2.24253 1.749,6.58247 -0.42537,6.58247 -0.825,0 -1.823,0.7875 -2.21778,1.75 -0.81052,1.97614 -2.25216,2.11106 -5.55396,0.51981 z M 237,114 c 0,-0.55 0.42344,-1 0.94098,-1 0.51754,0 1.2191,0.45 1.55902,1 0.33992,0.55 -0.0835,1 -0.94098,1 C 237.70156,115 237,114.55 237,114 Z m 10.44012,-2.45104 C 245.84714,109.11777 246.22181,105 248.036,105 c 0.49568,0 0.65545,0.64049 0.35506,1.42331 -0.84189,2.19392 3.08248,3.91596 4.64195,2.03692 1.0061,-1.21228 0.92259,-1.85181 -0.43817,-3.35543 -1.38551,-1.53098 -1.43498,-1.95217 -0.28128,-2.39488 0.76995,-0.29546 2.47688,-2.7e-4 3.79317,0.65597 3.03944,1.51533 3.57954,8.22826 0.64327,7.99522 -0.9625,-0.0764 -1.75,0.48611 -1.75,1.25 0,2.49623 -5.75844,1.68718 -7.55988,-1.06215 z M 188,92.940983 c 0,-0.582459 0.45,-0.780902 1,-0.440983 0.55,0.339919 1,0.816476 1,1.059017 C 190,93.801558 189.55,94 189,94 c -0.55,0 -1,-0.476558 -1,-1.059017 z m 72.5,-1.065891 c -3.53397,-1.028849 -17.00631,-2.172791 -23.69854,-2.012253 -2.58419,0.06199 -4.97325,-0.331787 -5.30902,-0.875064 -0.84572,-1.368405 13.39442,-1.268097 26.47591,0.186497 9.179,1.020658 11.17998,0.96319 15.29607,-0.439302 5.88868,-2.006474 6.19606,-1.248111 0.48558,1.197992 -5.65066,2.420481 -9.61234,3.001167 -13.25,1.94213 z M 192,88.758377 c -5.48951,-2.898353 -3.83168,-3.167774 3.23133,-0.525137 4.45776,1.667881 5.29324,2.365567 3.5618,2.974356 C 198.08191,91.457666 195.025,90.355517 192,88.758377 Z m -11.62,0.78951 c -0.85474,-2.227428 0.45862,-3.556084 3.42902,-3.46894 1.48004,0.04342 2.12848,0.305921 1.44098,0.583334 -0.6875,0.277412 -1.25,1.366886 -1.25,2.421052 0,2.235854 -2.80229,2.595471 -3.62,0.464554 z m 100.3169,-2.253662 c -1.43151,-0.366253 -1.56084,-0.753241 -0.62756,-1.877776 1.67847,-2.022434 5.15924,-1.838888 4.75398,0.250685 -0.36246,1.868936 -1.47168,2.306312 -4.12642,1.627091 z"
       id="path50"
       inkscape:connector-curvature="0" />
  </g>
</svg>
