<?xml version="1.0" encoding="utf-8"?>
<!-- Generator: Adobe Illustrator 22.0.1, SVG Export Plug-In . SVG Version: 6.00 Build 0)  -->
<svg version="1.1" id="Layer_1" xmlns="http://www.w3.org/2000/svg" xmlns:xlink="http://www.w3.org/1999/xlink" x="0px" y="0px"
	 viewBox="0 0 914 658" style="enable-background:new 0 0 914 658;" xml:space="preserve">
<style type="text/css">
	.st0{display:none;opacity:0.78;fill:#C8FFE8;enable-background:new    ;}
	.st1{display:none;opacity:0.6;}
	.st2{display:inline;}
	.st3{display:none;}
	.st4{display:inline;fill:#6D6E71;}
	.st5{display:inline;fill:#AAACAF;}
	.st6{display:inline;opacity:0.6;fill:#6D6E71;enable-background:new    ;}
	.st7{opacity:0.4;}
	.st8{fill:none;stroke:#6D6E71;stroke-width:3;stroke-linecap:round;stroke-miterlimit:10;}
	.st9{fill:#6D6E71;}
	
		.st10{display:inline;opacity:0.6;fill:none;stroke:#6D6E71;stroke-width:3;stroke-linecap:round;stroke-miterlimit:10;enable-background:new    ;}
	.st11{display:inline;fill:#B6B7BA;}
	.st12{fill:none;stroke:#99BB6E;stroke-width:2;stroke-linecap:round;stroke-miterlimit:10;stroke-dasharray:5;}
	.st13{fill:#E5DCFF;}
	.st14{fill:#ADC3D8;}
	.st15{fill:none;stroke:#B57FA5;stroke-width:2;stroke-linecap:round;stroke-miterlimit:10;stroke-dasharray:5;}
	.st16{fill:none;stroke:#B57FA5;stroke-width:3;stroke-linecap:round;stroke-miterlimit:10;}
	.st17{fill:none;stroke:#9F9ECD;stroke-width:3;stroke-linecap:round;stroke-linejoin:round;stroke-miterlimit:10;}
	.st18{display:none;opacity:0.9;fill:#6D6E71;enable-background:new    ;}
	.st19{fill:none;stroke:#101537;stroke-width:3;stroke-linecap:round;stroke-miterlimit:10;}
	.st20{fill:none;stroke:#726A65;stroke-width:3;stroke-miterlimit:10;}
	.st21{fill:#FFFFFF;}
	.st22{fill:none;stroke:#726A65;stroke-width:3;stroke-linecap:round;stroke-miterlimit:10;}
	.st23{opacity:0.15;fill:#AA9D96;enable-background:new    ;}
	.st24{fill:#33261B;stroke:#35281B;stroke-width:3;stroke-linecap:round;stroke-linejoin:round;stroke-miterlimit:10;}
	.st25{opacity:0.25;fill:#C779A9;enable-background:new    ;}
	.st26{fill:#101537;stroke:#101537;stroke-width:3;stroke-linecap:round;stroke-linejoin:round;stroke-miterlimit:10;}
</style>
<g>
	<path class="st0" d="M711.7,147.3c-35.6-13.5-97-8.9-166.6,7.3C458.8,103,347,122.2,281.5,199.4l-44.4,52.3
		c-131.7-33.9-215,165.2-215,250c0,49.2,39.3,117.2,48.7,117.2h356.4l81.4-0.1l11.6,0.6c134.3,23,324.8,13.6,360.6-80
		C925.3,422.8,828.6,191.8,711.7,147.3z"/>
	<g id="cat_2">
		<g id="КОТ_2">
			<g id="ФОН_2_" class="st1">
				<g id="ФОН_3_" class="st2">
					<g id="Мышь_1_" class="st3">
						<path class="st4" d="M86.4,590.6c-2.5-0.7-7-1.3-10.9-0.7c-2.4,0.4-4.6,1.2-6,2.7c-3.3,3.5-1.2,7.1,1.1,11
							c1.3,2.3,2.9,5,3.9,8.2c0.4,1.5,0.2,2.8-0.6,3.9c-1.6,1.9-6,5-19.8,6l0,0c-1.1,0-1.9,0.8-1.9,1.8s0.8,1.8,1.9,1.8
							c0.1,0,0.2,0,0.4,0l0,0c11.9-1,19.2-3.4,22.4-7.5c1.6-2.1,2.1-4.5,1.2-7.1c-1.1-3.6-2.8-6.7-4.1-9.1c-2.4-4.1-2.8-5.3-1.6-6.7
							c2.2-2.2,9.4-2.1,13.3-1c1,0.2,1.9-0.2,2.3-1.2C87.9,591.9,87.4,591,86.4,590.6z"/>
						<path class="st5" d="M83.3,593.3L83.3,593.3c0-0.7,0.1-1.5,0.5-2.1l0,0c0.6-1,1.7-1.6,2.9-1.6h75.2c2.4,0,4.1,2.5,3.1,4.8
							c-1.9,4.5-6.5,8.7-12.5,12.5c-1.9-3.4-5.6-5.6-9.7-5.6c-6.2,0-11.1,5-11.1,11.1c0,1.1,0.1,2.2,0.5,3.3
							c-6.7,1.8-13.4,2.9-19.7,2.9c-20.1,0-27.6-11.2-29.1-23.7C83.4,594.4,83.4,593.8,83.3,593.3z"/>
						<path class="st6" d="M131.8,612.4c0-6.2,5-11.1,11.1-11.1c4.1,0,7.7,2.3,9.7,5.6c-5.8,3.6-12.9,6.7-20.3,8.8
							C132,614.7,131.8,613.6,131.8,612.4z"/>
						<path class="st4" d="M131.8,612.4c0-6.2,5-11.1,11.1-11.1c4.1,0,7.7,2.3,9.7,5.6c1,1.6,1.5,3.5,1.5,5.6
							c0,6.2-5,11.1-11.1,11.1c-5,0-9.2-3.3-10.6-7.9C132,614.7,131.8,613.6,131.8,612.4z"/>
					</g>
					<g id="Когтеточка_1_" class="st3">
						<g class="st2">
							<g class="st7">
								<path class="st8" d="M719.7,269.5h-49.9c-2.2,0-3.7-1.7-3.7-3.7v-1.7c0-2.2,1.7-3.7,3.7-3.7h49.9c2.2,0,3.7,1.7,3.7,3.7v1.7
									C723.6,267.8,721.8,269.5,719.7,269.5z"/>
								<path class="st8" d="M719.7,279h-49.9c-2.2,0-3.7-1.7-3.7-3.7v-1.7c0-2.2,1.7-3.7,3.7-3.7h49.9c2.2,0,3.7,1.7,3.7,3.7v1.7
									C723.6,277.2,721.8,279,719.7,279z"/>
								<path class="st8" d="M719.7,288.2h-49.9c-2.2,0-3.7-1.7-3.7-3.7v-1.7c0-2.2,1.7-3.7,3.7-3.7h49.9c2.2,0,3.7,1.7,3.7,3.7v1.7
									C723.6,286.5,721.8,288.2,719.7,288.2z"/>
								<path class="st8" d="M719.7,297.6h-49.9c-2.2,0-3.7-1.7-3.7-3.7v-1.7c0-2.2,1.7-3.7,3.7-3.7h49.9c2.2,0,3.7,1.7,3.7,3.7v1.7
									C723.6,295.9,721.8,297.6,719.7,297.6z"/>
								<path class="st8" d="M719.7,306.9h-49.9c-2.2,0-3.7-1.7-3.7-3.7v-1.7c0-2.2,1.7-3.7,3.7-3.7h49.9c2.2,0,3.7,1.7,3.7,3.7v1.7
									C723.6,305.2,721.8,306.9,719.7,306.9z"/>
								<path class="st8" d="M719.7,316.3h-49.9c-2.2,0-3.7-1.7-3.7-3.7v-1.7c0-2.2,1.7-3.7,3.7-3.7h49.9c2.2,0,3.7,1.7,3.7,3.7v1.7
									C723.6,314.5,721.8,316.3,719.7,316.3z"/>
								<path class="st8" d="M719.7,325.5h-49.9c-2.2,0-3.7-1.7-3.7-3.7v-1.7c0-2.2,1.7-3.7,3.7-3.7h49.9c2.2,0,3.7,1.7,3.7,3.7v1.7
									C723.6,323.8,721.8,325.5,719.7,325.5z"/>
								<path class="st8" d="M719.7,335h-49.9c-2.2,0-3.7-1.7-3.7-3.7v-1.7c0-2.2,1.7-3.7,3.7-3.7h49.9c2.2,0,3.7,1.7,3.7,3.7v1.7
									C723.6,333.3,721.8,335,719.7,335z"/>
								<path class="st8" d="M719.7,344.3h-49.9c-2.2,0-3.7-1.7-3.7-3.7v-1.7c0-2.2,1.7-3.7,3.7-3.7h49.9c2.2,0,3.7,1.7,3.7,3.7v1.7
									C723.6,342.6,721.8,344.3,719.7,344.3z"/>
								<path class="st8" d="M719.7,353.6h-49.9c-2.2,0-3.7-1.7-3.7-3.7v-1.7c0-2.2,1.7-3.7,3.7-3.7h49.9c2.2,0,3.7,1.7,3.7,3.7v1.7
									C723.6,351.9,721.8,353.6,719.7,353.6z"/>
								<path class="st8" d="M719.7,362.9h-49.9c-2.2,0-3.7-1.7-3.7-3.7v-1.7c0-2.2,1.7-3.7,3.7-3.7h49.9c2.2,0,3.7,1.7,3.7,3.7v1.7
									C723.6,361.2,721.8,362.9,719.7,362.9z"/>
								<path class="st8" d="M719.7,372.3h-49.9c-2.2,0-3.7-1.7-3.7-3.7v-1.7c0-2.2,1.7-3.7,3.7-3.7h49.9c2.2,0,3.7,1.7,3.7,3.7v1.7
									C723.6,370.6,721.8,372.3,719.7,372.3z"/>
								<path class="st8" d="M719.7,381.6h-49.9c-2.2,0-3.7-1.7-3.7-3.7v-1.7c0-2.2,1.7-3.7,3.7-3.7h49.9c2.2,0,3.7,1.7,3.7,3.7v1.7
									C723.6,379.8,721.8,381.6,719.7,381.6z"/>
								<path class="st8" d="M719.7,391h-49.9c-2.2,0-3.7-1.7-3.7-3.7v-1.7c0-2.2,1.7-3.7,3.7-3.7h49.9c2.2,0,3.7,1.7,3.7,3.7v1.7
									C723.6,389.3,721.8,391,719.7,391z"/>
								<path class="st8" d="M719.7,400.3h-49.9c-2.2,0-3.7-1.7-3.7-3.7v-1.7c0-2.2,1.7-3.7,3.7-3.7h49.9c2.2,0,3.7,1.7,3.7,3.7v1.7
									C723.6,398.6,721.8,400.3,719.7,400.3z"/>
								<path class="st8" d="M719.7,409.7h-49.9c-2.2,0-3.7-1.7-3.7-3.7v-1.7c0-2.2,1.7-3.7,3.7-3.7h49.9c2.2,0,3.7,1.7,3.7,3.7v1.7
									C723.6,408,721.8,409.7,719.7,409.7z"/>
								<path class="st8" d="M719.7,419h-49.9c-2.2,0-3.7-1.7-3.7-3.7v-1.7c0-2.2,1.7-3.7,3.7-3.7h49.9c2.2,0,3.7,1.7,3.7,3.7v1.7
									C723.6,417.2,721.8,419,719.7,419z"/>
								<path class="st8" d="M719.7,428.3h-49.9c-2.2,0-3.7-1.7-3.7-3.7v-1.7c0-2.2,1.7-3.7,3.7-3.7h49.9c2.2,0,3.7,1.7,3.7,3.7v1.7
									C723.6,426.6,721.8,428.3,719.7,428.3z"/>
								<path class="st8" d="M719.7,437.6h-49.9c-2.2,0-3.7-1.7-3.7-3.7v-1.7c0-2.2,1.7-3.7,3.7-3.7h49.9c2.2,0,3.7,1.7,3.7,3.7v1.7
									C723.6,435.9,721.8,437.6,719.7,437.6z"/>
								<path class="st8" d="M719.7,447.1h-49.9c-2.2,0-3.7-1.7-3.7-3.7v-1.8c0-2.2,1.7-3.7,3.7-3.7h49.9c2.2,0,3.7,1.7,3.7,3.7v1.7
									C723.6,445.4,721.8,447.1,719.7,447.1z"/>
								<path class="st8" d="M719.7,456.4h-49.9c-2.2,0-3.7-1.7-3.7-3.7V451c0-2.2,1.7-3.7,3.7-3.7h49.9c2.2,0,3.7,1.7,3.7,3.7v1.7
									C723.6,454.6,721.8,456.4,719.7,456.4z"/>
								<path class="st8" d="M719.7,465.7h-49.9c-2.2,0-3.7-1.7-3.7-3.7v-1.7c0-2.2,1.7-3.7,3.7-3.7h49.9c2.2,0,3.7,1.7,3.7,3.7v1.7
									C723.6,464,721.8,465.7,719.7,465.7z"/>
								<path class="st8" d="M719.7,475h-49.9c-2.2,0-3.7-1.7-3.7-3.7v-1.7c0-2.2,1.7-3.7,3.7-3.7h49.9c2.2,0,3.7,1.7,3.7,3.7v1.7
									C723.6,473.3,721.8,475,719.7,475z"/>
								<path class="st8" d="M719.7,484.4h-49.9c-2.2,0-3.7-1.7-3.7-3.7V479c0-2.2,1.7-3.7,3.7-3.7h49.9c2.2,0,3.7,1.7,3.7,3.7v1.7
									C723.6,482.6,721.8,484.4,719.7,484.4z"/>
								<path class="st8" d="M719.7,493.8h-49.9c-2.2,0-3.7-1.7-3.7-3.7v-1.7c0-2.2,1.7-3.7,3.7-3.7h49.9c2.2,0,3.7,1.7,3.7,3.7v1.7
									C723.6,491.9,721.8,493.8,719.7,493.8z"/>
								<path class="st8" d="M719.7,503.1h-49.9c-2.2,0-3.7-1.7-3.7-3.7v-1.7c0-2.2,1.7-3.7,3.7-3.7h49.9c2.2,0,3.7,1.7,3.7,3.7v1.7
									C723.6,501.4,721.8,503.1,719.7,503.1z"/>
								<path class="st8" d="M719.7,512.4h-49.9c-2.2,0-3.7-1.7-3.7-3.7V507c0-2.2,1.7-3.7,3.7-3.7h49.9c2.2,0,3.7,1.7,3.7,3.7v1.7
									C723.6,510.7,721.8,512.4,719.7,512.4z"/>
								<path class="st8" d="M719.7,521.8h-49.9c-2.2,0-3.7-1.7-3.7-3.7v-1.7c0-2.2,1.7-3.7,3.7-3.7h49.9c2.2,0,3.7,1.7,3.7,3.7v1.7
									C723.6,520,721.8,521.8,719.7,521.8z"/>
								<path class="st8" d="M719.7,531h-49.9c-2.2,0-3.7-1.7-3.7-3.7v-1.7c0-2.2,1.7-3.7,3.7-3.7h49.9c2.2,0,3.7,1.7,3.7,3.7v1.7
									C723.6,529.3,721.8,531,719.7,531z"/>
								<path class="st8" d="M719.7,540.4h-49.9c-2.2,0-3.7-1.7-3.7-3.7V535c0-2.2,1.7-3.7,3.7-3.7h49.9c2.2,0,3.7,1.7,3.7,3.7v1.7
									C723.6,538.7,721.8,540.4,719.7,540.4z"/>
							</g>
							<path class="st9" d="M722,262.4h-54.7c-2.8,0-5.1-2.3-5.1-5.1v-4.1c0-2.8,2.3-5.1,5.1-5.1H722c2.8,0,5.1,2.3,5.1,5.1v4.1
								C727.1,260.1,724.8,262.4,722,262.4z"/>
							<rect x="660.5" y="540.4" class="st9" width="68.6" height="29.7"/>
							<rect x="623.5" y="570.2" class="st9" width="142.6" height="16.8"/>
						</g>
						<path class="st10" d="M694.7,251.6c0-35.2,28.7-63.9,63.9-63.9s63.9,28.7,63.9,63.9"/>
						<circle class="st6" cx="822.4" cy="276.1" r="23.8"/>
					</g>
					<g id="Кактус_1_" class="st3">
						<polygon class="st4" points="689.2,467.5 726.3,467.5 709.9,591.3 632.2,591.3 614.8,467.5 651.9,467.5 						"/>
						<path class="st11" d="M720.4,323.5v45.6c0,8.5-5.4,15.2-11.9,15.2h-20.1v83.2h-32.2v-60.8h-23.6c-6.7,0-12.2-6.9-12.2-15.6
							c0-0.1,0-0.2,0-0.2c0-0.1,0-0.2,0-0.2V341c0-8.8,5.6-16.1,12.6-16.1c6.9,0,12.6,7.3,12.6,16.1v34.7h10.6v-66.4
							c0-5.7,1.8-10.8,4.8-14.5c2.9-3.7,6.9-6,11.4-6c8.9,0,16.1,9.2,16.1,20.6v44.5h8v-30.5c0-8.5,5.4-15.2,11.9-15.2
							C715.2,308.1,720.4,315,720.4,323.5z"/>
					</g>
					<g id="ДЕТАЛИ_1_">
						<circle class="st12" cx="786" cy="153.2" r="24.9"/>
						<ellipse class="st13" cx="660.3" cy="108.9" rx="11.5" ry="11.5"/>
						<circle class="st14" cx="107.6" cy="143.9" r="9.9"/>
						<circle class="st15" cx="165.7" cy="303.6" r="15.7"/>
						<g>
							<line class="st16" x1="166.6" y1="190.8" x2="166.6" y2="204.5"/>
							<g>
								<line class="st16" x1="173.3" y1="197.7" x2="159.7" y2="197.7"/>
							</g>
						</g>
						<g>
							<line class="st17" x1="834.3" y1="342.9" x2="834.3" y2="362.3"/>
							<g>
								<line class="st17" x1="844.1" y1="352.7" x2="824.7" y2="352.7"/>
							</g>
						</g>
						<path class="st18" d="M723.8-91.8c-1.1-2.8-2.5-5.4-4.5-7.7l0,0l0,0c-6.4-8-17.2-13.3-29.4-13.3c-19.7,0-35.6,13.5-35.6,30.4
							c0-16.8-16-30.4-35.6-30.4c-12.2,0-23,5.3-29.4,13.3l0,0l0,0c-1.9,2.4-3.4,5-4.5,7.7C566.4-48.1,654.5-8,654.5-8
							S742.3-48.1,723.8-91.8z"/>
					</g>
				</g>
			</g>
			<g id="Пол_2_">
				<line class="st19" x1="173.2" y1="571.9" x2="638.8" y2="571.9"/>
				<line class="st20" x1="283.8" y1="589.9" x2="289.7" y2="589.9"/>
			</g>
			<g id="КОТИК">
				<g>
					<path class="st21" d="M330.1,447.7c0,0-34.1-79.7-78.4-79.5c-5.8,0-11,3.5-13.5,8.7c-7.5,16-11.6,55.7,81.9,113.1"/>
					<path class="st22" d="M330.1,447.7c0,0-34.1-79.7-78.4-79.5c-5.8,0-11,3.5-13.5,8.7c-7.5,16-11.6,55.7,81.9,113.1"/>
					<path class="st21" d="M643.2,320c0,0,9.1,41.5-26.4,22.3c-4.7-2.5-8.9-5.9-12.8-9.7c-6.7-6.5-22.4-18.9-38.2-3.6
						c17.4,46.9,45.3,160.2-44.6,254c-3.6,3.7-5,9.2-3.3,14.1c2.1,6.2,6.7,15.8,16.8,29.9c0,0-1.7,14.1-18.4,8.3
						c-16.6-5.8-17.9,4.5-17.9,4.5s-37.4,9.7-44.5-13.5c-3.5-11.6-4.2-29.3-6.8-44.4c-2.4-15.1-6.5-27.6-16.8-28.9
						c-36.8,29.9-117.2,89.9-169.1,88.8c0,0-21.9-4.6-6.4-25.9c0,0-11-1.9-5.6-16.7c5.6-14.9,51.9-35.4,56.5-47
						c4.4-11.1,28.9-147.4,56.6-203.6c2.4-4.8,1.1-10.6-3-14c-8.1-6.7-24.3-11.9-51.6,13.7c-4.1,3.7-9.2,6.4-14.8,7.1
						c-7.7,1.1-15.7-1.7-9.7-20.8c0,0-49-16.1-2.5-31c0,0-16-14.1-12.6-22.6c1-2.4,3.9-3.6,6.4-2.8c12.2,4,61.4,17.1,86.1-22
						c4.8-7.6,9.8-15.4,15.2-22.5c8.5-11.1,19.3-27.2,22.1-38.6c4.4-18.3-28.2-20.4-13.1-99.8l0,0l-44-4.6c-1.3-0.1-1.9-1.9-0.7-2.8
						l50.2-38.5c0,0,31.3-27.8,70.9-34.3l0,0C515.3,2.6,563,33.2,573.7,41c1,0.7,0.7,2.2-0.4,2.5l-32.7,11.2
						c14.6,25.9,37.2,77.9,5.7,110.4c0,0-0.1,0.1-0.2,0.2c-5.3,5.7-7.4,17.2-5.6,24.5C543,200,547,216,554,231.3
						c13.3,28.8,37.1,54.3,81.3,30.8c5.3-2.9,14-2.7,19.1,0.8c5.7,3.9,7.7,10.6-9.9,25c-0.1,0.1-0.1,0.4,0,0.5
						C648.9,290.7,686,307.8,643.2,320z"/>
					<path class="st23" d="M318,487.7c-17-6-39.3-27-47-34c-56-51-29-82-29-82c0,30,61,102,83,95"/>
				</g>
				<path class="st21" d="M644.3,288.8c-0.1-0.1-0.1-0.4,0-0.5c17.6-14.4,15.6-21.2,9.9-25c-5.1-3.5-13.8-3.8-19.1-0.8
					c-44,23.4-72.1-4.7-81.2-30.6l-15-44.1l3.6-17.4l0,0c0.1-0.4,3.3-4.8,3.3-4.8l0.1-0.1c31.6-32.5,8.9-84.6-5.8-110.5h0.1
					l32.6-11.2c1.1-0.4,1.3-1.9,0.4-2.5c-10.6-7.8-58.2-38.2-112.1-26C421.6,21.5,390,49.6,390,49.6L339.8,88
					c-1.1,0.8-0.6,2.7,0.7,2.8l44,4.6l0.3-0.2c-12.3,64.8,7,78.1,12.3,90.8l1.2,6c0,1-0.1,2-0.4,3c-2.7,11.4-13.8,27.5-22.1,38.6
					c-5.4,7.1-10.4,14.8-15.2,22.5c-24.7,39.1-73.9,26-86.1,22c-2.5-0.8-5.4,0.4-6.4,2.8c-3.4,8.5,12.6,22.6,12.6,22.6
					c-46.4,14.9,2.5,31,2.5,31c-6,19.1,1.9,21.9,9.7,20.8c5.6-0.7,10.6-3.3,14.8-7.1c27.3-25.4,43.5-20.2,51.6-13.5
					c4.1,3.4,5.3,9.2,3,14c-27.7,56.2-52.2,192.5-56.6,203.6c-4.5,11.6-50.9,32.3-56.4,47c-5.4,14.8,5.6,16.7,5.6,16.7
					c-15.5,21.3,6.4,25.9,6.4,25.9c51.9,1,132.4-59.1,169-88.9c20.5,2.7,16.4,50.1,23.5,73.3s44.5,13.5,44.5,13.5s1.2-10.3,17.9-4.5
					s18.4-8.3,18.4-8.3c-10.2-14-14.8-23.7-16.8-29.9c-1.7-5-0.4-10.4,3.3-14.1c92.5-96.5,60.3-213.7,43.1-257.9l1.1-0.5l0.5,4.5
					c15.8-15.2,31.6-2.9,38.2,3.6c3.9,3.7,8.1,7.1,12.8,9.7c35.4,19.2,26.4-22.3,26.4-22.3C685.9,307.9,648.7,290.7,644.3,288.8z"/>
				<g>
					<path class="st23" d="M366.8,82L417,43.6c0,0,15-13.4,37.4-23.7C416.5,27.3,387,53.6,387,53.6l-46,35.2c-1.1,0.8,1.7,1.9,3,2
						l42,4l-1,1c-12.3,64.8,6.8,77.4,12,90l1,9c0,1-1.8,3.9-2,5c-2.7,11.4-14.8,26.8-23.2,37.9c-5.4,7.1-10.4,14.8-15.2,22.5
						c-4.7,7.4-15.6,14.5-21.6,18.6c16.5-1.4,38.6-10.3,51.6-28.6c12.4-17.4,28.9-55.2,29.4-57.7c0,0-43.6-40.3-32-101.7l1,3"/>
					<path class="st23" d="M639.7,260.8c0.8-0.1,1.6-0.2,2.5-0.3C641.3,260.5,640.5,260.6,639.7,260.8z"/>
					<path class="st23" d="M291.3,631.9c0,0-14.8-3.1-11.5-16c1.3-4.9,1-10.1-1.1-14.8c-1.2-2.5-1.4-6.2,0.6-11.8
						c5.4-14.8,51.9-35.4,56.4-47c4.4-11.1,28.9-147.4,56.6-203.6c2.3-4.8,1.1-10.6-3-14c-7-5.8-20.1-10.4-41.2,4.9
						c4.7,0.8,8.4,2.9,11.2,5.1c4.1,3.4,5.3,9.2,3,14c-27.7,56.2-52.2,192.5-56.6,203.6c-4.5,11.6-50.9,32.3-56.4,47
						c-5.4,14.8,5.6,16.7,5.6,16.7c-15.5,21.3,6.4,25.9,6.4,25.9c15,0.3,32.4-4.5,50.5-12.3C304.6,631.2,297.7,632,291.3,631.9z"/>
					<path class="st23" d="M528.3,629.8c0,0-37.4,9.7-44.5-13.5s-3-70.6-23.5-73.3c-5.8,4.7-12.8,10.3-20.6,16.2
						c9.8,14.1,8.3,48.4,14.1,67.1c7.1,23.2,44.5,13.5,44.5,13.5s1.2-10.3,17.9-4.5s18.4-8.3,18.4-8.3c-0.6-0.9-1.3-1.7-1.9-2.6
						C528.8,626.1,528.3,629.8,528.3,629.8z"/>
				</g>
				<g>
					<path class="st22" d="M521.4,26.3c-13.1-8-26.4-11.6-39.3-12.3C433.2,11.1,390,49.6,390,49.6L339.8,88
						c-1.1,0.8-0.6,2.7,0.7,2.8l44,4.6"/>
					<path class="st22" d="M530.5,39.3c0,0,58.8,81.5,15.5,126c-5.4,5.6-7.6,17.3-5.7,24.8c7.1,29.3,27.3,108.2,94.8,72.3
						c5.3-2.9,14-2.7,19.1,0.8c5.7,3.9,7.7,10.6-9.9,25c-0.1,0.1-0.1,0.4,0,0.5c4.5,1.9,41.6,19.1-1.1,31.3c0,0,9.1,41.5-26.4,22.3
						c-4.7-2.5-8.9-5.9-12.8-9.7c-6.7-6.5-24.5-21.5-38.5-4.5"/>
					<path class="st22" d="M556.2,307c0,0,81.4,154.4-35.2,276c-3.6,3.7-5,9.2-3.3,14.1c1.9,5.6,5.8,14,14,25.9
						c2.9,4.1,1.7,10-2.7,12.4c-2.7,1.5-6.8,2-12.8-0.1c-10.1-3.5-14.6-1.1-16.5,1.3c-1.9,2.5-4.9,4-8,4.4c-11,1.6-32.7,2.3-38-14.8
						c-7.1-23.2-3-70.7-23.6-73.3"/>
					<path class="st22" d="M449.7,536.7c0,0-115.4,102.9-184.8,105.2c-3.7,0.1-7.5-0.9-10.5-3.1c-4.8-3.4-8.7-10.2,0.5-22.8
						c0,0-11-1.9-5.6-16.7s51.9-35.4,56.4-47c4.4-11.1,28.9-147.4,56.6-203.6c2.3-4.8,1.1-10.6-3-14c-8.1-6.7-24.3-11.9-51.6,13.5
						c-4.1,3.9-9.2,6.4-14.8,7.1c-7.7,1.1-15.7-1.7-9.7-20.8c0,0-49-16.1-2.5-31c0,0-16-14.1-12.6-22.6c1-2.4,3.9-3.6,6.4-2.8
						c12.2,4,61.4,17.1,86.1-22c4.8-7.7,9.8-15.4,15.2-22.5c8.3-11.1,19.5-27.2,22.1-38.6c4.5-19-30.6-20.6-11.2-108.8"/>
					<path class="st22" d="M540.3,54.9L573,43.7c1.1-0.4,1.3-1.9,0.4-2.5C562.8,33.3,515,2.9,460.9,15.3"/>
				</g>
				<g>
					<path class="st23" d="M317.8,310.7c1.2-1.4,1.9-3.2,1.9-5.1c0-4.5-3.7-8.1-8.4-8.1c-4.6,0-8.4,3.6-8.4,8.1
						c0,2.9,1.6,5.4,3.9,6.9c-1.2,1.4-1.9,3.2-1.9,5.1c0,4.5,3.7,8.1,8.4,8.1c4.6,0,8.4-3.6,8.4-8.1
						C321.7,314.7,320.2,312.2,317.8,310.7z"/>
					<path class="st23" d="M612.9,301.1c1.5-1.1,2.6-2.6,3.1-4.5c1.1-4.4-1.6-8.8-6.1-10s-9,1.4-10.1,5.8c-0.7,2.8,0.2,5.6,2,7.6
						c-1.5,1.1-2.6,2.6-3.1,4.5c-1.1,4.4,1.6,8.8,6.1,10s9-1.4,10.1-5.8C615.6,305.9,614.8,303.1,612.9,301.1z"/>
					<ellipse class="st23" cx="296.3" cy="339.6" rx="8.4" ry="8.1"/>
					<ellipse class="st23" cx="288.3" cy="294.6" rx="8.4" ry="8.1"/>
					<ellipse class="st23" cx="439.3" cy="103.7" rx="8.4" ry="4"/>
					
						<ellipse transform="matrix(0.9457 -0.3251 0.3251 0.9457 4.0303 169.5225)" class="st23" cx="509.3" cy="72.7" rx="8.4" ry="4"/>
					<path class="st23" d="M573,41.7c0.7,2.1-22.6,10.5-27,12s-9.3-1.9-10-4s13.5-6.1,18-7C559,41.7,572.2,39.6,573,41.7z"/>
					<ellipse class="st23" cx="637.3" cy="275.6" rx="8.4" ry="8.1"/>
					<ellipse class="st23" cx="642.3" cy="305.6" rx="8.4" ry="8.1"/>
					<ellipse class="st23" cx="629.3" cy="330.6" rx="8.4" ry="8.1"/>
					<ellipse class="st23" cx="280.3" cy="317.6" rx="8.4" ry="8.1"/>
					<circle class="st24" cx="442.3" cy="71.5" r="8.2"/>
					<circle class="st24" cx="496.2" cy="48.3" r="8.1"/>
					<path class="st22" d="M427.3,71.7c-2.2,15.6,4.6,27.3,11.6,28.3s16.2-8.9,18.4-24.7c2.2-15.6-3.9-28.7-10.8-29.7
						C439.5,44.6,429.6,56.1,427.3,71.7z"/>
					<path class="st22" d="M512.6,43.9c4,10.8,1.1,22.6-6.7,25.4c-7.7,2.8-19.2-3.9-23.1-14.6S482,32.8,489.7,30
						C497.5,27.2,508.7,33,512.6,43.9z"/>
					<path class="st22" d="M485.7,90.1c0,0,4.6,18.9,3.1,26.6"/>
					
						<ellipse transform="matrix(0.3368 -0.9416 0.9416 0.3368 177.4978 552.9101)" class="st25" cx="481.2" cy="150.5" rx="34.7" ry="18.4"/>
					
						<ellipse transform="matrix(0.3368 -0.9416 0.9416 0.3368 177.4978 552.9101)" class="st22" cx="481.2" cy="150.5" rx="34.7" ry="18.4"/>
					<path class="st22" d="M423.2,41.6c0,0,5-15.5,26.4-19"/>
					<path class="st22" d="M475.3,18.1c0,0,15.8-3.4,31.7,7.3"/>
					<path class="st26" d="M475.3,89.1c0,0,4.4-11.1,20.8-7l-8,13.2L475.3,89.1z"/>
				</g>
			</g>
		</g>
	</g>
</g>
</svg>
